<?xml version="1.0" standalone="no"?>
<!DOCTYPE svg PUBLIC "-//W3C//DTD SVG 20010904//EN"
 "http://www.w3.org/TR/2001/REC-SVG-20010904/DTD/svg10.dtd">
<svg version="1.0" xmlns="http://www.w3.org/2000/svg"
 width="4096.000000pt" height="1776.000000pt" viewBox="0 0 4096.000000 1776.000000"
 preserveAspectRatio="xMidYMid meet">

<g transform="translate(0.000000,1776.000000) scale(0.100000,-0.100000)"
fill="#000000" stroke="none">
<path d="M15020 16543 c-14 -1 -178 -5 -365 -8 -723 -12 -1326 -25 -1359 -30
-11 -2 -109 -6 -216 -10 -107 -4 -202 -8 -210 -10 -8 -1 -91 -5 -185 -9 -321
-12 -420 -16 -495 -23 -41 -3 -82 -5 -90 -5 -29 1 -645 -38 -681 -43 -20 -3
-70 -7 -110 -10 -41 -3 -99 -7 -130 -10 -30 -3 -98 -8 -150 -10 -151 -8 -293
-26 -308 -38 -12 -9 -13 -9 -7 1 4 7 2 12 -8 12 -8 0 -17 -4 -20 -8 -3 -5 -35
-8 -71 -7 -36 1 -68 -2 -71 -7 -3 -4 -18 -6 -34 -3 -21 4 -32 0 -40 -12 -9
-15 -11 -15 -7 -2 4 12 -1 17 -19 17 -13 0 -22 -3 -20 -7 3 -4 -19 -6 -47 -5
-29 1 -60 -3 -71 -8 -14 -7 -16 -7 -11 2 5 9 2 10 -11 3 -11 -5 -37 -9 -59 -8
-22 1 -46 -3 -52 -8 -9 -6 -13 -5 -13 4 0 9 -3 10 -8 4 -4 -5 -47 -11 -97 -12
-92 -3 -209 -25 -258 -50 -15 -7 -39 -31 -53 -53 -33 -50 -29 -95 16 -184 35
-69 151 -226 260 -356 40 -47 114 -138 166 -202 164 -204 350 -421 427 -498
15 -16 27 -32 27 -37 0 -4 11 -17 25 -27 14 -10 25 -25 25 -32 0 -7 16 -25 35
-39 19 -15 33 -30 32 -33 -1 -4 0 -7 3 -7 11 0 38 -30 34 -37 -3 -4 5 -12 16
-18 11 -6 27 -24 36 -41 10 -20 21 -29 30 -25 9 4 12 2 8 -5 -3 -6 10 -26 30
-45 20 -19 34 -34 31 -34 -5 0 22 -26 63 -60 7 -6 12 -7 12 -1 0 5 13 -2 30
-17 16 -14 37 -26 47 -28 37 -3 279 -45 297 -50 13 -4 16 -3 11 6 -6 9 -4 11
6 4 20 -12 49 -15 49 -5 0 5 -6 12 -12 14 -7 3 -3 6 9 6 17 1 20 -4 16 -21 -4
-21 -3 -21 7 -5 14 21 -4 51 -24 40 -6 -4 -5 0 2 9 11 14 10 17 -10 24 -13 4
-27 7 -31 6 -5 -1 -6 2 -3 7 3 5 -36 52 -87 104 -50 53 -110 115 -131 139 -22
24 -33 34 -25 23 13 -19 13 -19 -4 -6 -10 8 -16 20 -13 26 5 15 -31 48 -44 40
-6 -3 -7 0 -4 8 3 9 -4 22 -18 31 -12 9 -19 16 -14 16 4 0 -6 14 -24 30 -18
17 -36 30 -41 30 -5 0 -9 5 -9 11 0 15 -47 59 -54 51 -3 -3 -6 0 -6 7 0 7 -5
9 -12 5 -7 -4 -8 -3 -4 4 4 7 2 20 -4 29 -10 16 -11 16 -5 -2 4 -13 3 -16 -3
-10 -6 6 -12 19 -14 30 -2 11 -11 19 -21 19 -9 -1 -14 2 -11 7 3 5 0 9 -5 9
-6 0 -11 5 -11 11 0 5 5 7 10 4 6 -3 10 -1 10 4 0 6 -9 11 -21 11 -15 0 -19 5
-15 15 5 13 -4 19 -24 17 -3 0 -7 9 -7 21 -2 23 -30 50 -44 42 -4 -3 -6 3 -5
12 2 10 -4 23 -13 30 -9 6 -16 16 -16 22 0 6 -18 27 -40 47 -22 21 -34 34 -27
30 23 -13 12 4 -28 44 -23 23 -38 45 -35 50 4 6 2 10 -4 10 -5 0 -12 -6 -15
-12 -3 -7 -3 -3 -1 8 4 14 0 24 -10 28 -9 3 -14 10 -11 14 2 4 -11 25 -30 46
-19 20 -34 41 -34 47 0 5 -4 9 -9 9 -5 0 -12 8 -16 19 -3 10 -19 31 -35 47
-16 16 -30 34 -30 39 0 6 -9 17 -20 25 -11 8 -20 20 -20 27 0 7 -4 13 -10 13
-5 0 -9 3 -8 8 3 8 -32 64 -47 74 -5 4 -6 8 -1 8 5 0 3 7 -4 15 -7 8 -16 13
-20 10 -5 -3 -6 4 -3 15 3 11 1 20 -4 20 -5 0 -10 6 -10 13 0 6 -3 23 -7 37
-13 55 21 70 209 90 61 6 187 20 280 31 278 31 438 46 875 84 228 19 431 37
450 40 19 3 188 16 375 30 187 14 369 27 405 30 175 13 504 32 680 40 69 3
159 8 200 10 41 3 145 8 230 11 262 11 275 12 275 13 0 1 108 4 240 7 132 3
263 7 290 9 121 8 993 20 1450 20 495 0 1267 -11 1315 -19 14 -2 153 -7 310
-11 157 -3 299 -8 315 -10 17 -2 93 -7 170 -10 199 -8 379 -20 485 -30 19 -2
73 -6 120 -9 142 -10 234 -17 260 -21 14 -2 66 -7 115 -10 50 -4 106 -9 125
-12 19 -2 48 -6 63 -8 16 -2 45 -6 65 -9 32 -5 33 -4 13 4 -14 6 -32 12 -40
13 -9 1 -22 6 -28 10 -7 5 -13 5 -13 0 0 -4 -4 -2 -8 4 -5 7 -31 14 -59 15
-28 2 -49 6 -46 11 2 4 -6 7 -19 8 -13 0 -32 2 -43 5 -11 2 -38 6 -60 9 -22 2
-51 7 -65 10 -49 10 -118 23 -175 30 -11 2 -38 5 -60 9 -22 3 -65 8 -95 11
-30 3 -82 10 -115 15 -53 8 -165 19 -360 36 -33 2 -76 7 -95 9 -19 2 -82 7
-140 10 -58 3 -125 8 -150 10 -25 2 -103 7 -175 11 -71 3 -137 8 -145 9 -8 2
-96 6 -195 10 -99 4 -182 9 -185 10 -3 2 -120 6 -260 9 -140 4 -275 9 -300 11
-106 10 -1621 25 -1710 18z m-4305 -1242 c3 -5 0 -13 -6 -17 -7 -4 -9 -3 -5 4
3 5 0 13 -6 15 -9 4 -10 6 -1 6 6 1 14 -3 18 -8z"/>
<path d="M19595 16240 c3 -6 20 -10 37 -10 38 0 34 5 -10 13 -21 4 -31 3 -27
-3z"/>
<path d="M19670 16230 c0 -5 30 -11 68 -15 37 -3 85 -10 107 -15 22 -5 57 -12
79 -15 21 -3 41 -7 45 -9 3 -2 28 -7 55 -10 27 -4 53 -9 56 -11 4 -2 80 -13
171 -25 90 -11 182 -23 204 -26 172 -22 461 -94 815 -204 69 -21 222 -69 340
-105 294 -91 751 -246 971 -330 20 -8 39 -11 43 -8 3 4 6 1 6 -5 0 -7 7 -12
15 -12 8 0 23 -4 33 -9 22 -12 123 -53 137 -55 5 -2 27 -10 49 -19 21 -9 42
-17 47 -17 5 0 17 -4 27 -9 14 -8 37 -18 62 -26 3 -1 19 -8 35 -15 17 -7 32
-14 35 -15 3 0 41 -18 84 -38 43 -20 80 -37 82 -37 5 0 370 -168 651 -298 155
-73 285 -132 289 -132 4 0 15 -7 24 -15 9 -8 53 -34 97 -57 280 -149 351 -188
466 -257 70 -42 141 -83 157 -92 16 -9 26 -19 23 -23 -4 -4 0 -4 10 0 11 4 17
1 17 -8 0 -21 39 -50 87 -64 24 -7 41 -10 39 -5 -3 4 6 6 19 3 14 -2 25 -11
25 -18 0 -8 6 -14 13 -15 6 0 20 -2 30 -4 9 -2 15 1 11 6 -3 5 21 -3 53 -17
32 -15 68 -29 81 -31 12 -3 22 -9 22 -13 0 -4 18 -13 40 -20 22 -7 40 -16 40
-20 0 -4 18 -13 40 -20 22 -7 40 -17 40 -21 0 -8 40 -24 53 -21 4 1 10 -5 13
-13 4 -8 15 -15 25 -15 10 0 19 -5 19 -11 0 -5 4 -7 10 -4 5 3 15 -3 22 -15 7
-11 19 -20 26 -20 7 0 15 -7 18 -15 4 -8 10 -15 15 -15 13 0 114 -110 111
-122 -1 -5 2 -7 6 -4 5 3 17 -3 27 -14 10 -11 22 -20 27 -20 5 0 35 -17 66
-38 31 -21 104 -66 162 -100 138 -81 214 -135 218 -155 4 -19 -72 -37 -159
-37 -33 0 -58 -4 -55 -8 3 -5 -3 -8 -12 -8 -54 0 -82 -5 -82 -15 0 -5 5 -7 12
-3 7 5 8 3 2 -7 -14 -22 -11 -53 6 -66 8 -7 11 -13 7 -13 -4 0 -2 -10 5 -22 7
-13 11 -26 10 -30 -1 -5 3 -8 8 -8 6 0 10 -7 10 -15 0 -8 10 -24 23 -36 12
-12 15 -18 7 -14 -12 7 -13 5 -2 -6 10 -11 16 -11 33 -1 12 8 18 9 14 3 -4 -7
7 -11 32 -12 21 0 58 -2 83 -4 25 -2 158 -6 295 -9 138 -3 322 -10 410 -16
155 -10 290 -14 329 -11 20 2 2 16 -184 138 -52 34 -120 77 -150 95 -30 17
-58 36 -62 42 -5 7 -8 6 -8 -2 0 -7 -13 1 -29 18 -20 23 -30 28 -34 18 -4 -9
-6 -8 -6 4 -1 9 -11 23 -24 30 -13 7 -45 28 -73 45 -27 18 -52 33 -56 33 -4 0
-20 12 -35 26 -15 13 -33 22 -40 19 -8 -2 -12 -1 -9 4 3 4 -16 22 -42 38 -143
91 -168 106 -179 106 -7 0 -13 5 -13 10 0 6 -3 8 -6 4 -4 -3 -14 3 -23 14 -9
11 -26 21 -38 22 -12 0 -20 4 -17 9 2 4 -5 12 -16 18 -11 6 -20 7 -20 3 0 -4
-6 0 -12 9 -22 27 -257 157 -262 144 -2 -6 -5 -2 -5 8 -1 11 -4 16 -8 13 -3
-4 -11 0 -18 9 -6 9 -23 17 -38 17 -18 1 -25 6 -22 15 3 7 0 10 -5 7 -5 -3
-19 4 -31 16 -21 21 -23 21 -36 4 -7 -11 -13 -13 -13 -6 0 7 -5 9 -12 5 -6 -4
-8 -3 -5 2 11 18 -11 37 -44 38 -19 1 -34 7 -36 16 -4 13 -3 13 6 0 7 -9 11
-10 11 -3 0 14 -19 27 -40 28 -8 0 -15 6 -15 14 0 8 -8 15 -18 17 -10 1 -15
-2 -11 -9 3 -7 -2 -3 -10 7 -9 11 -16 15 -16 8 0 -6 -7 -9 -16 -5 -13 5 -13 7
-2 14 10 7 9 9 -4 9 -10 0 -18 6 -18 13 0 6 -11 13 -25 13 -29 2 -57 22 -50
35 3 4 -4 6 -16 4 -15 -3 -19 0 -15 11 3 9 1 12 -4 9 -6 -3 -10 -1 -10 5 0 6
-5 8 -10 5 -6 -4 -7 -11 -4 -17 4 -7 2 -8 -5 -4 -6 4 -9 11 -6 16 3 4 -2 11
-11 14 -22 9 -26 8 -18 -6 5 -7 3 -8 -5 -4 -7 5 -10 14 -7 22 9 22 -14 27 -36
7 -12 -10 -18 -13 -15 -6 4 6 3 14 -3 18 -6 4 -7 12 -3 18 4 7 -1 6 -10 -2
-10 -8 -20 -11 -24 -7 -3 3 0 6 7 6 9 0 8 6 -5 20 -10 11 -20 18 -23 15 -3 -3
-12 1 -21 8 -14 11 -14 10 -2 -5 7 -10 18 -15 24 -11 6 4 7 1 2 -7 -6 -9 -4
-11 5 -5 9 6 11 4 5 -4 -5 -9 -13 -7 -29 8 -12 12 -26 18 -30 14 -4 -4 -4 0
-1 9 5 12 -3 21 -27 34 -18 9 -41 23 -50 32 -10 8 -18 11 -18 6 0 -5 -4 -4 -8
3 -12 20 -153 93 -165 86 -5 -3 -7 -1 -3 5 6 10 -17 23 -38 21 -5 0 -12 4 -15
9 -11 18 -143 82 -154 75 -7 -3 -9 -2 -4 2 8 9 -523 275 -554 278 -10 1 -19 4
-19 7 0 11 -71 40 -82 34 -6 -4 -8 -3 -5 3 8 12 -181 96 -195 87 -7 -5 -8 -2
-3 6 6 10 4 12 -9 7 -10 -4 -15 -3 -11 3 3 6 -1 11 -9 11 -24 2 -29 4 -51 16
-11 6 -119 52 -240 102 -121 51 -236 99 -257 107 -20 9 -42 13 -49 9 -8 -6
-10 -4 -4 5 6 10 3 12 -13 8 -12 -4 -20 -3 -17 2 3 4 -3 10 -13 13 -9 2 -26 8
-36 13 -15 6 -18 4 -12 -7 4 -8 0 -5 -8 5 -12 15 -16 16 -16 5 0 -11 -2 -11
-9 -1 -4 7 -14 12 -22 10 -8 -2 -13 3 -11 10 1 8 -2 11 -7 8 -5 -4 -13 -1 -16
5 -4 5 -13 8 -21 5 -8 -3 -14 0 -14 6 0 7 -7 3 -16 -8 -8 -10 -13 -14 -10 -9
2 6 1 17 -5 25 -6 11 -9 12 -9 2 0 -7 -5 -10 -10 -7 -6 4 -8 11 -5 16 4 5 -1
9 -10 9 -9 0 -14 -4 -10 -9 3 -5 -15 1 -40 15 -26 13 -43 18 -40 12 4 -7 0 -5
-9 6 -16 20 -112 50 -129 39 -6 -4 -7 -1 -2 7 6 10 4 12 -8 7 -10 -3 -17 -2
-17 3 0 5 -7 6 -17 3 -9 -4 -14 -2 -11 3 4 5 -7 10 -24 11 -17 0 -33 6 -37 12
-4 6 -16 12 -26 14 -11 1 -26 6 -32 10 -7 5 -17 5 -23 2 -5 -3 -10 -1 -10 6 0
7 -3 9 -7 6 -3 -4 -11 -3 -17 2 -16 14 -268 94 -436 140 -166 45 -868 220
-1010 251 -108 24 -177 39 -235 50 -22 4 -74 14 -115 23 -41 9 -95 19 -120 22
-63 10 -81 13 -200 35 -58 10 -143 23 -190 30 -47 6 -98 13 -114 16 -16 2 -57
6 -90 9 -34 3 -86 8 -116 11 -30 2 -77 6 -105 9 -27 2 -62 6 -77 9 -16 2 -28
1 -28 -4z m5390 -1946 c0 -8 -19 -13 -24 -6 -3 5 1 9 9 9 8 0 15 -2 15 -3z
m2195 -1104 c4 -6 11 -7 17 -4 7 4 8 2 4 -5 -6 -9 -12 -9 -24 1 -10 7 -19 14
-21 15 -2 2 1 3 7 3 6 0 14 -5 17 -10z"/>
<path d="M25786 14117 c3 -10 9 -15 12 -12 3 3 0 11 -7 18 -10 9 -11 8 -5 -6z"/>
<path d="M29100 12891 c0 -12 90 -24 182 -25 36 -1 64 -4 61 -8 -2 -5 17 -8
44 -9 55 -1 122 -7 141 -14 7 -3 11 -1 8 3 -3 5 1 9 9 9 8 0 12 -4 9 -9 -3 -4
14 -8 38 -9 24 0 50 -2 58 -3 8 -2 60 -6 115 -10 55 -4 116 -9 135 -11 48 -5
131 -13 215 -20 80 -7 161 -15 184 -20 9 -1 75 -8 146 -14 150 -13 189 -17
305 -31 226 -27 458 -49 483 -46 15 2 27 0 27 -3 0 -6 58 -12 138 -15 23 0 42
-5 42 -9 0 -5 12 -8 28 -7 15 1 29 1 32 0 3 -1 23 -4 45 -5 22 -2 40 -4 40 -5
0 -1 14 -3 30 -4 17 -2 45 -6 64 -10 23 -6 31 -5 27 3 -4 5 5 4 20 -3 30 -16
60 -14 56 4 -1 6 2 9 8 5 6 -3 7 -11 4 -17 -5 -7 2 -9 20 -6 14 3 26 1 26 -3
0 -12 23 -7 32 6 5 7 8 7 8 0 0 -6 21 -10 48 -10 26 1 56 -5 68 -11 11 -7 43
-15 70 -19 27 -3 65 -8 84 -11 19 -3 69 -9 110 -15 312 -39 863 -118 1045
-149 35 -6 52 -5 57 3 5 8 8 8 8 1 0 -6 6 -11 13 -11 6 0 21 -4 31 -9 12 -4
17 -4 13 3 -3 5 0 10 8 10 8 0 12 -4 9 -8 -7 -11 104 -32 133 -24 14 3 22 2
19 -3 -3 -6 0 -9 7 -9 6 1 46 -4 87 -12 41 -7 85 -14 97 -16 13 -2 27 -6 33
-10 5 -3 10 0 10 7 0 8 3 9 8 3 10 -15 46 -22 142 -30 30 -3 56 -9 58 -15 2
-5 8 -10 13 -10 6 0 7 6 3 13 -6 9 -5 9 7 0 8 -7 33 -14 54 -17 22 -2 41 -5
43 -7 1 -1 16 -3 32 -4 17 -1 33 -4 38 -5 4 -2 12 -4 17 -5 6 -1 17 -5 25 -8
8 -3 67 -15 130 -27 63 -11 147 -27 185 -35 39 -9 135 -29 215 -46 319 -67
704 -153 865 -194 94 -24 276 -71 405 -104 280 -72 334 -87 510 -141 74 -23
171 -52 215 -65 592 -174 1095 -392 1458 -631 153 -102 170 -110 139 -67 -59
83 -331 271 -645 447 -115 64 -319 166 -333 166 -2 0 -27 11 -56 24 -30 14
-78 34 -108 46 -30 12 -68 28 -85 35 -104 48 -782 286 -850 298 -11 2 -29 7
-40 11 -53 20 -72 26 -90 29 -11 2 -28 7 -37 11 -9 4 -22 5 -28 1 -5 -3 -10
-1 -10 5 0 7 -7 10 -15 6 -8 -3 -15 -2 -15 3 0 5 -12 11 -27 14 -16 3 -89 21
-163 40 -99 26 -138 32 -148 24 -10 -8 -12 -7 -10 2 2 8 -4 15 -12 17 -8 1
-42 10 -75 18 -162 42 -472 114 -520 121 -11 2 -20 4 -20 5 0 1 -11 4 -25 6
-14 2 -43 6 -65 9 -22 4 -50 7 -62 8 -12 0 -19 5 -16 10 4 6 -5 7 -20 3 -15
-3 -29 -1 -32 5 -4 6 -13 8 -21 5 -7 -3 -16 -2 -18 3 -3 4 -21 7 -41 6 -19 -2
-35 0 -35 4 0 7 -19 9 -82 11 -15 1 -30 6 -34 11 -3 5 -10 7 -15 4 -5 -4 -14
-3 -21 1 -7 5 -28 8 -48 7 -19 0 -39 2 -45 5 -5 4 -19 7 -30 8 -30 3 -64 12
-77 20 -7 5 -8 3 -3 -6 6 -9 4 -11 -6 -5 -7 5 -26 10 -43 12 -47 5 -75 11 -87
19 -8 4 -9 3 -5 -4 5 -8 2 -10 -8 -6 -9 3 -16 10 -16 15 0 5 -10 5 -23 0 -15
-6 -29 -5 -41 4 -12 10 -25 11 -42 5 -17 -7 -22 -6 -18 3 3 9 -15 12 -67 12
-39 0 -73 4 -76 9 -4 5 -1 6 5 2 7 -4 12 -3 12 3 0 6 -15 8 -35 6 -19 -3 -35
-1 -35 3 0 5 -6 9 -12 9 -20 1 -99 12 -138 18 -19 4 -51 8 -70 9 -19 2 -42 6
-50 9 -8 3 -44 9 -80 13 -132 13 -173 18 -220 28 -19 3 -60 8 -90 10 -30 2
-62 6 -70 9 -8 3 -44 8 -80 11 -36 3 -74 7 -85 10 -11 3 -40 7 -65 10 -25 2
-153 18 -285 35 -222 29 -439 51 -980 101 -115 10 -255 22 -310 25 -55 4 -140
11 -190 16 -49 5 -108 11 -130 14 -22 2 -89 7 -150 10 -60 3 -130 8 -155 11
-124 12 -163 15 -255 20 -55 3 -122 8 -150 10 -27 2 -88 6 -135 8 -47 2 -116
7 -155 10 -74 6 -184 12 -350 22 -55 3 -102 7 -104 10 -2 2 -11 -2 -19 -9 -13
-9 -14 -9 -8 1 5 9 -8 12 -56 13 -35 0 -81 2 -103 4 -22 1 -48 -2 -59 -7 -13
-7 -16 -7 -12 1 5 7 -5 11 -26 12 -161 4 -217 7 -227 13 -6 4 -11 3 -11 -3z"/>
<path d="M13056 12313 c-2 -3 -48 -9 -111 -16 -15 -2 -20 -9 -18 -30 1 -19 -2
-26 -10 -22 -7 4 1 -5 16 -19 15 -14 26 -26 23 -26 -3 0 1 -8 9 -17 7 -10 44
-56 81 -103 37 -47 91 -112 120 -145 28 -33 99 -121 158 -195 59 -74 124 -155
144 -180 20 -25 57 -71 81 -103 24 -32 50 -61 58 -64 7 -3 13 -11 13 -19 0 -8
4 -14 10 -14 5 0 16 -12 24 -27 8 -16 33 -47 56 -71 22 -24 40 -46 40 -49 0
-3 16 -21 35 -40 19 -19 35 -38 35 -42 0 -4 13 -21 28 -37 16 -17 31 -38 35
-48 4 -10 12 -14 18 -10 7 4 10 3 6 -2 -5 -9 24 -48 238 -315 72 -89 252 -314
400 -499 149 -185 336 -418 416 -516 80 -98 168 -206 195 -240 303 -373 551
-657 566 -648 6 4 8 2 5 -3 -14 -23 322 -378 513 -542 47 -40 97 -84 112 -97
14 -13 31 -24 37 -24 6 0 11 -5 11 -11 0 -5 5 -7 12 -3 7 4 8 3 4 -4 -7 -11
32 -38 47 -34 5 1 6 -2 3 -7 -3 -5 6 -17 20 -26 18 -12 24 -13 19 -4 -4 8 7
-2 25 -21 18 -19 29 -28 24 -20 -4 8 11 -2 35 -23 24 -21 75 -59 114 -84 40
-25 91 -58 113 -74 23 -15 44 -25 48 -22 3 3 6 1 6 -5 0 -6 16 -16 35 -22 19
-6 38 -17 42 -25 10 -17 293 -156 304 -149 5 3 9 1 9 -4 0 -5 12 -14 28 -20
15 -6 36 -14 47 -18 11 -4 23 -8 28 -9 4 -2 10 -4 15 -5 4 -1 10 -2 15 -1 4 0
7 -4 7 -10 0 -5 4 -8 9 -4 5 3 12 1 16 -5 4 -6 11 -8 16 -5 5 4 9 1 9 -6 0 -7
3 -9 7 -6 3 4 13 1 21 -6 13 -10 14 -9 7 3 -7 12 -5 12 11 -1 31 -26 48 -34
39 -18 -5 7 4 4 19 -9 21 -16 32 -19 42 -11 9 7 15 5 23 -8 6 -10 11 -13 11
-8 0 6 5 3 10 -5 8 -13 10 -13 10 -1 0 11 4 10 16 -5 8 -10 12 -12 8 -4 -5 12
-4 12 6 3 7 -6 19 -9 26 -6 8 3 16 -2 20 -10 3 -9 14 -14 25 -12 10 2 19 -1
19 -6 0 -6 5 -7 10 -4 6 3 10 1 10 -6 0 -8 5 -7 17 2 9 8 14 9 10 2 -9 -15 13
-23 35 -12 13 7 20 4 28 -11 6 -11 15 -18 20 -15 18 11 51 14 45 4 -4 -5 -11
-7 -16 -4 -5 4 -9 1 -9 -5 0 -7 7 -9 16 -6 9 4 22 2 29 -4 9 -8 15 -8 20 0 3
5 12 10 18 10 8 0 8 -3 -2 -9 -19 -12 -1 -21 54 -27 34 -3 44 -1 39 7 -4 8 -3
9 5 5 6 -4 9 -11 6 -16 -3 -4 2 -10 10 -14 8 -3 17 -1 20 4 4 6 12 10 18 10 7
0 7 -4 -2 -9 -12 -8 -9 -11 12 -16 15 -4 38 -5 52 -3 15 3 22 1 18 -5 -4 -6 0
-8 9 -4 9 3 19 3 22 -1 10 -9 48 -13 42 -4 -3 5 1 9 8 9 8 0 12 -7 9 -15 -5
-12 -2 -12 15 -3 16 9 24 8 36 -5 12 -12 16 -12 16 -2 0 11 2 10 9 -1 5 -8 30
-14 64 -15 30 0 53 -5 50 -10 -3 -5 0 -6 8 -4 8 3 21 2 30 -3 8 -4 21 -4 29 1
8 5 22 3 34 -5 12 -8 54 -16 94 -19 40 -3 77 -8 81 -11 5 -2 57 -7 117 -10 60
-2 109 -5 109 -6 0 -1 29 -3 65 -5 36 -2 76 -5 90 -7 14 -1 31 4 38 13 11 13
11 13 7 -1 -5 -12 3 -15 40 -15 25 0 45 4 45 10 0 6 5 3 11 -7 6 -10 15 -14
22 -10 18 11 38 13 31 2 -3 -5 2 -9 11 -9 9 0 14 4 10 9 -3 5 0 13 6 17 7 4 9
3 5 -4 -3 -6 -2 -13 4 -17 5 -3 10 0 10 7 0 8 3 9 8 3 8 -13 22 -13 41 -1 9 6
12 5 8 -1 -4 -6 2 -13 13 -16 17 -4 18 -2 9 15 l-11 21 28 -20 c34 -23 51 -24
64 -3 8 13 10 13 10 -2 0 -10 7 -16 19 -15 11 0 17 5 15 9 -3 5 -11 5 -17 2
-7 -4 -8 -3 -4 1 14 16 37 14 37 -3 0 -11 3 -13 8 -6 13 19 40 23 52 8 7 -8
18 -14 24 -14 7 0 6 4 -2 9 -11 7 -10 9 3 14 9 4 14 3 11 -1 -2 -4 -1 -14 5
-22 7 -12 9 -11 9 5 0 16 2 17 9 6 5 -8 17 -16 25 -17 9 -1 14 2 10 7 -3 5 0
9 5 9 6 0 11 -5 11 -11 0 -8 6 -7 17 2 15 12 16 12 8 -1 -6 -12 -5 -13 5 -3 9
9 19 9 32 2 11 -6 26 -8 34 -5 9 3 12 1 9 -4 -3 -6 -1 -10 4 -10 6 0 11 6 11
13 0 8 4 7 10 -3 9 -13 10 -13 10 0 0 9 3 11 8 4 8 -12 51 -12 71 0 9 6 12 5
8 -1 -4 -6 9 -10 32 -9 23 0 37 5 33 11 -3 5 -2 7 3 3 4 -4 14 -3 21 3 10 8
16 5 26 -10 7 -12 16 -21 21 -21 4 0 6 4 3 8 -3 5 1 9 9 9 8 0 12 -4 9 -9 -8
-13 41 -9 55 5 11 10 12 9 6 -2 -6 -11 -4 -13 8 -8 9 3 19 2 22 -3 4 -6 17
-10 31 -10 18 0 23 4 18 13 -6 9 -4 9 7 1 8 -6 30 -11 49 -11 19 0 57 -3 83
-7 34 -5 54 -3 65 6 12 10 14 10 8 1 -4 -8 -1 -13 9 -13 9 0 14 4 11 8 -3 5 1
9 9 9 8 0 12 -4 9 -9 -3 -4 2 -8 11 -8 10 0 13 5 9 13 -6 9 -5 9 7 0 12 -10
18 -10 29 0 10 10 11 9 5 -2 -6 -11 -4 -13 7 -8 9 3 19 3 23 -1 4 -4 25 -7 48
-7 29 0 47 6 60 20 9 11 17 16 16 10 -4 -30 1 -36 16 -21 15 15 70 16 94 2 6
-4 11 -4 11 0 0 4 9 -1 19 -10 13 -12 21 -14 26 -6 4 6 1 9 -7 8 -7 -2 -12 2
-11 9 2 7 -6 10 -17 8 -12 -2 -18 0 -15 5 6 9 24 8 43 -3 6 -5 17 -5 24 -1 7
4 8 3 4 -4 -5 -8 -2 -10 9 -6 14 6 14 9 -2 28 -13 15 -13 17 -2 8 9 -6 18 -10
21 -7 2 3 5 -3 5 -13 0 -9 -7 -23 -16 -30 -14 -11 -13 -11 7 -2 12 6 22 14 22
19 0 4 7 8 15 8 8 0 15 -5 15 -11 0 -5 7 -1 15 10 14 18 14 17 5 -11 -9 -27
-9 -28 4 -12 14 18 14 18 20 0 3 -10 4 -6 2 9 -2 21 1 26 15 23 10 -2 23 4 29
13 5 9 10 12 10 5 0 -7 6 -11 13 -9 6 1 9 1 5 -1 -5 -3 -8 -12 -8 -21 0 -15 2
-15 10 -2 8 13 11 13 22 1 11 -11 11 -13 -1 -6 -10 6 -12 4 -6 -5 6 -9 4 -11
-5 -5 -9 6 -11 4 -5 -6 8 -12 6 -12 -8 0 -14 11 -17 11 -17 0 0 -9 -3 -10 -8
-4 -11 15 -34 17 -30 3 5 -15 88 -19 85 -4 -1 5 7 10 18 10 11 0 19 -6 17 -13
-1 -7 2 -10 8 -6 8 5 8 11 0 20 -7 8 -9 18 -6 24 7 11 35 8 44 -5 4 -5 13 -9
21 -9 8 0 16 -7 18 -15 4 -13 3 -13 -6 0 -8 12 -11 12 -11 1 0 -10 -3 -11 -13
-2 -8 6 -17 8 -20 4 -13 -12 -7 -20 16 -18 12 1 29 -2 39 -6 13 -7 15 -5 11
14 -4 17 -2 19 5 8 15 -21 40 -22 47 -3 5 14 9 13 26 -8 15 -20 18 -21 13 -5
-4 11 -12 27 -18 35 -9 13 -9 13 6 2 10 -8 20 -23 24 -34 5 -16 8 -18 15 -7 4
7 4 18 -1 24 -6 8 -5 12 4 12 8 0 13 -8 11 -19 -2 -10 0 -16 6 -13 5 4 9 0 9
-7 0 -8 3 -9 8 -3 4 6 16 10 27 10 11 0 26 4 33 9 9 6 11 4 6 -10 -4 -14 -3
-16 4 -5 5 7 14 11 20 7 6 -3 14 -1 18 5 4 7 3 9 -4 5 -6 -3 -14 -2 -17 4 -4
6 -2 9 3 8 6 -2 10 0 11 5 3 25 0 29 -16 14 -10 -8 -22 -17 -28 -19 -5 -2 -9
-7 -7 -12 2 -5 -4 -4 -12 4 -13 10 -16 10 -16 -1 0 -12 -2 -12 -9 0 -7 11 -9
11 -14 0 -3 -8 -4 -4 -4 8 1 16 5 19 13 12 8 -7 14 -6 17 3 4 11 6 10 6 0 1
-7 6 -10 12 -7 7 5 4 14 -8 28 -12 15 -13 18 -2 9 9 -6 19 -8 23 -4 4 4 6 3 4
-3 -1 -5 2 -10 7 -10 6 0 9 3 8 7 -3 8 24 4 33 -5 4 -4 9 -22 10 -40 1 -17 3
-34 3 -37 1 -2 6 1 13 8 15 15 31 16 22 0 -4 -7 -3 -8 4 -4 6 4 8 14 5 24 -6
15 -5 16 12 2 17 -14 18 -14 5 10 -12 23 -12 24 3 12 9 -8 22 -10 29 -6 11 6
11 5 0 -8 -10 -13 -9 -15 10 -14 13 0 22 -4 21 -9 -1 -6 7 -11 18 -11 19 0 19
1 3 13 -10 7 -13 13 -6 13 6 0 9 6 6 14 -3 8 -1 17 5 21 7 3 8 0 5 -9 -4 -11
0 -14 15 -11 11 2 20 1 20 -3 -3 -21 2 -32 13 -26 7 5 8 3 3 -6 -6 -10 -12 -7
-26 11 -10 13 -19 19 -19 12 0 -27 32 -43 88 -43 87 0 219 -7 269 -15 35 -5
43 -4 38 6 -6 9 -4 10 6 3 21 -13 52 -12 71 4 11 9 18 10 23 2 3 -5 10 -8 15
-5 4 3 11 -3 15 -13 6 -16 7 -16 21 2 8 11 14 25 14 30 -1 6 -8 0 -16 -14 -9
-14 -13 -17 -10 -7 3 11 3 24 -1 30 -10 16 -13 41 -5 32 4 -4 8 -11 8 -16 1
-5 2 -12 3 -16 0 -4 7 1 14 12 11 14 16 15 22 5 5 -9 4 -11 -3 -6 -14 9 -15
-4 -2 -24 9 -13 10 -13 11 0 0 10 3 8 9 -5 5 -11 9 -14 9 -7 1 6 7 12 15 12 8
0 12 9 11 25 -4 30 -2 30 16 8 8 -9 9 -14 3 -10 -7 4 -11 -5 -12 -23 0 -16 3
-32 9 -35 5 -4 6 2 2 11 -5 13 -2 16 9 12 9 -4 20 -2 26 4 6 6 12 6 16 -1 5
-8 13 -8 27 0 15 7 24 7 34 -1 9 -8 15 -8 20 0 4 6 12 7 18 2 14 -10 37 -10
37 1 0 4 0 17 -1 30 0 21 -1 21 -9 2 l-9 -20 -1 20 c-2 17 -3 16 -10 -5 -7
-22 -8 -22 -10 -5 -1 11 -2 23 -1 27 0 4 -9 4 -22 -1 -12 -4 -28 -6 -34 -4 -7
3 -13 0 -13 -7 0 -6 5 -8 10 -5 6 3 10 1 10 -5 0 -7 -7 -9 -16 -6 -8 3 -13 2
-10 -2 3 -5 -1 -9 -8 -9 -7 0 -13 6 -13 13 0 7 4 11 9 8 4 -3 8 0 8 6 0 6 -8
10 -17 8 -10 -2 -17 -11 -17 -21 1 -9 -3 -14 -9 -10 -6 4 -7 1 -2 -7 5 -9 4
-11 -3 -6 -9 5 -9 13 -1 28 8 15 8 23 -2 32 -9 8 -10 8 -5 -1 8 -15 -10 -18
-19 -3 -3 5 -16 9 -28 9 -23 -1 -118 6 -277 20 -52 4 -126 7 -165 5 -41 -1
-76 3 -84 10 -17 14 -15 14 -34 -3 -10 -7 -17 -10 -17 -5 0 5 -5 2 -10 -6 -8
-13 -10 -13 -10 1 0 13 -8 16 -35 13 -19 -1 -41 -6 -48 -10 -9 -6 -9 -4 1 8
12 14 6 17 -50 20 -35 2 -69 -1 -77 -7 -11 -7 -13 -7 -7 3 4 6 3 12 -1 12 -5
0 -15 -6 -22 -12 -11 -11 -12 -10 -6 0 8 16 -26 13 -37 -3 -5 -6 -8 -5 -8 4 0
11 -3 11 -17 0 -9 -8 -14 -9 -10 -3 7 12 5 13 -83 19 -36 2 -84 7 -107 10 -28
5 -43 3 -43 -4 0 -6 8 -8 18 -4 11 3 9 0 -6 -11 -12 -10 -19 -22 -16 -28 4 -7
2 -8 -5 -4 -8 5 -9 12 -2 20 18 22 -3 36 -47 31 -29 -3 -42 0 -42 8 0 7 -4 6
-10 -3 -5 -8 -10 -10 -10 -5 0 6 -14 12 -31 13 -22 2 -29 -1 -24 -10 4 -7 0
-5 -8 5 -16 20 -47 23 -47 5 0 -8 -3 -9 -8 -3 -4 6 -22 10 -40 10 -18 -1 -35
2 -37 5 -2 4 -34 6 -70 4 -36 -1 -65 1 -65 5 0 4 -19 7 -42 8 -24 1 -90 6
-148 12 -58 5 -135 9 -172 7 -37 -2 -65 0 -63 4 3 4 -8 8 -23 7 -30 0 -327 21
-407 29 -27 2 -104 6 -170 9 -66 2 -129 7 -139 11 -15 6 -17 4 -11 -7 7 -11 6
-12 -6 -3 -8 6 -88 16 -179 23 -225 16 -379 30 -480 41 -154 17 -190 18 -190
6 0 -6 -4 -5 -9 3 -5 7 -14 10 -20 7 -6 -4 -11 -2 -11 4 0 6 -15 11 -32 11
-72 0 -106 4 -101 11 2 5 -13 8 -34 8 -73 0 -135 7 -141 16 -4 5 -20 10 -35
11 -26 2 -27 0 -15 -15 11 -15 11 -15 -3 -5 -9 7 -19 10 -23 6 -4 -4 -4 1 0
12 7 18 6 18 -9 6 -14 -11 -17 -11 -17 0 0 9 -3 10 -8 4 -9 -13 -52 -15 -52
-2 0 5 -7 4 -15 -3 -13 -11 -14 -10 -10 2 4 9 0 15 -9 15 -8 0 -12 -5 -9 -11
4 -6 -1 -5 -10 2 -9 8 -22 10 -28 6 -8 -4 -9 -3 -5 4 4 7 1 12 -9 12 -10 0
-13 -5 -9 -12 5 -9 2 -9 -9 1 -17 14 -24 26 -9 17 5 -3 9 1 9 9 0 13 -4 13
-25 -1 -13 -9 -22 -11 -18 -6 3 6 2 13 -4 17 -5 3 -10 1 -10 -6 0 -8 -3 -9
-13 0 -8 6 -18 7 -23 3 -4 -4 -3 0 3 8 10 13 8 15 -15 14 -15 -1 -33 4 -41 10
-11 8 -13 8 -7 -1 4 -7 2 -13 -3 -13 -6 0 -11 5 -11 10 0 6 -5 10 -11 10 -6 0
-9 -7 -6 -14 4 -10 1 -13 -8 -9 -8 3 -12 9 -9 14 3 5 -4 9 -15 9 -12 0 -21 5
-21 11 0 6 -9 9 -20 6 -11 -3 -23 0 -27 5 -4 7 -1 8 7 3 9 -5 11 -4 6 3 -8 13
-33 12 -55 -2 -10 -6 -12 -5 -7 2 7 12 -4 15 -46 15 -10 0 -15 4 -12 8 3 5 9
7 14 4 5 -3 11 -1 15 4 6 11 -27 7 -47 -5 -6 -4 -8 -3 -5 2 3 6 -3 16 -15 23
-11 7 -18 8 -14 3 3 -5 -1 -9 -9 -9 -8 0 -12 8 -9 20 3 19 2 19 -16 2 -18 -16
-18 -16 -13 7 6 21 5 22 -12 8 -10 -8 -16 -10 -12 -4 4 7 0 15 -9 18 -10 4
-13 2 -8 -7 3 -6 -4 -1 -17 13 -13 14 -33 27 -44 28 -11 2 -22 7 -25 10 -3 4
-14 14 -24 22 -18 13 -19 13 -11 0 5 -9 -1 -7 -15 5 -15 13 -21 15 -16 5 4 -8
-2 -3 -14 13 -12 15 -26 25 -31 21 -5 -3 -9 1 -9 8 0 10 -2 11 -8 0 -5 -7 -16
-10 -25 -6 -9 3 -15 10 -12 14 3 5 -4 11 -15 15 -11 3 -20 11 -20 17 0 7 -5 6
-15 -2 -20 -17 -40 -3 -23 18 12 14 10 14 -11 2 -21 -11 -23 -10 -18 4 4 10 1
16 -8 17 -8 1 -21 2 -27 3 -7 0 -13 8 -13 16 0 9 -8 14 -19 12 -10 -2 -15 1
-12 7 4 6 -2 8 -14 6 -11 -2 -19 1 -17 7 1 6 -14 20 -33 31 -34 20 -34 20 -20
2 14 -18 13 -19 -1 -8 -9 7 -19 10 -23 6 -4 -4 -4 0 -1 8 4 12 -5 23 -30 38
-20 11 -33 15 -29 9 4 -7 -6 -1 -22 13 -45 41 -82 61 -96 53 -7 -4 -10 -3 -5
1 9 11 -43 46 -56 38 -6 -3 -7 -1 -3 5 3 6 -8 21 -26 33 -18 13 -36 28 -40 34
-4 5 -8 7 -8 3 0 -5 -8 0 -19 10 -19 17 -98 83 -137 114 -12 10 -25 14 -28 10
-4 -4 -6 -2 -4 3 2 6 -31 40 -72 75 -41 36 -116 104 -166 152 -50 48 -95 85
-99 80 -5 -4 -5 -2 -2 4 4 6 -22 39 -57 73 -36 33 -61 61 -58 61 4 0 -18 23
-48 52 -30 28 -48 47 -40 43 13 -8 13 -6 1 8 -7 9 -18 14 -24 10 -6 -3 -7 -1
-3 5 4 6 -2 17 -14 24 -11 7 -20 17 -20 22 0 5 -17 25 -37 44 -21 19 -31 31
-23 28 8 -4 -1 6 -20 23 -19 17 -30 31 -25 31 5 0 -6 12 -23 26 -18 15 -32 33
-32 41 0 8 -4 11 -10 8 -5 -3 -10 1 -10 9 0 9 -4 16 -10 16 -5 0 -10 4 -10 10
0 5 -14 23 -31 40 -18 16 -28 30 -24 30 4 0 -4 11 -19 25 -14 13 -27 28 -27
32 0 5 -29 43 -65 86 -36 44 -68 85 -71 93 -3 8 -11 14 -19 14 -8 0 -14 6 -14
14 0 8 -7 16 -15 20 -8 3 -15 15 -15 26 0 11 -5 20 -11 20 -5 0 -7 -6 -3 -12
5 -9 2 -9 -9 1 -18 15 -23 26 -7 16 20 -12 9 13 -12 29 -13 9 -16 14 -8 10 8
-4 4 5 -10 18 -14 14 -28 24 -32 21 -4 -2 -5 2 -2 10 3 8 -2 17 -10 20 -9 4
-16 14 -16 22 0 9 -4 13 -10 10 -5 -3 -10 1 -10 10 0 19 -23 45 -40 45 -6 0
-8 5 -5 10 7 12 -20 42 -29 33 -3 -4 -6 1 -6 10 0 9 -6 20 -12 24 -7 4 -20 20
-28 34 -23 40 -61 88 -102 130 -21 21 -38 43 -38 49 0 6 -6 8 -12 4 -7 -4 -10
-4 -6 1 4 4 2 15 -5 23 -10 13 -9 15 3 8 8 -4 6 0 -4 8 -11 9 -24 16 -29 16
-4 0 -6 4 -2 9 3 5 -5 21 -17 34 -29 32 -43 49 -49 62 -2 6 -8 9 -12 7 -5 -1
-6 2 -2 8 3 5 1 10 -4 10 -6 0 -10 3 -9 8 2 4 -9 21 -24 37 -16 16 -28 35 -28
42 0 6 -10 19 -22 28 -13 8 -21 17 -18 18 7 4 -103 147 -112 147 -5 0 -8 6 -8
13 0 7 -10 23 -22 37 -13 14 -35 41 -49 60 -15 19 -36 45 -48 57 -12 12 -21
27 -21 33 0 5 -6 9 -12 8 -7 -2 -12 3 -10 10 1 7 -8 12 -20 12 -17 0 -19 3 -9
9 11 7 9 11 -8 20 -11 7 -21 19 -21 27 0 10 -6 14 -14 11 -11 -4 -13 -1 -9 10
4 11 2 14 -5 9 -7 -4 -10 -2 -6 7 6 17 -21 41 -37 32 -7 -5 -7 0 2 16 11 21
10 22 -2 12 -12 -10 -15 -8 -16 7 -2 24 -43 81 -54 74 -5 -3 -11 6 -15 20 -3
13 -12 27 -21 30 -8 3 -12 10 -9 15 6 9 -22 26 -37 22 -5 -1 -6 3 -2 9 3 6 12
7 18 4 7 -4 1 5 -13 20 -14 15 -24 29 -22 32 1 2 -1 4 -4 3 -11 -1 -32 36 -26
45 3 5 -2 7 -10 3 -21 -8 -30 3 -17 20 9 10 8 13 -5 14 -30 3 -34 4 -43 13 -5
5 -3 6 5 2 17 -10 15 9 -3 24 -8 7 -12 17 -8 23 4 6 0 8 -11 4 -10 -4 -15 -3
-11 3 3 5 -8 21 -25 36 -16 15 -30 36 -30 46 0 11 -5 16 -10 13 -10 -6 -35 42
-31 59 1 5 -5 6 -14 2 -9 -3 -13 -2 -10 4 3 5 -3 17 -14 27 -11 9 -18 20 -16
24 3 4 -3 13 -12 20 -10 8 -14 9 -10 2 4 -6 3 -14 -2 -17 -5 -4 -8 5 -7 19 2
13 0 22 -4 20 -4 -3 -14 3 -21 12 -12 14 -12 15 0 9 8 -5 6 2 -5 20 -21 32
-35 45 -45 39 -3 -3 -4 7 -1 20 2 15 0 25 -7 25 -7 0 -9 -5 -5 -12 5 -9 2 -8
-10 1 -11 9 -13 17 -6 21 7 5 6 11 -5 20 -8 7 -15 18 -15 26 0 7 -10 20 -22
29 -13 8 -22 18 -20 20 7 14 0 25 -10 19 -7 -4 -10 -4 -6 1 11 12 -11 47 -25
39 -7 -4 -9 -4 -5 1 4 4 -9 31 -28 58 -47 65 -68 114 -53 123 6 3 133 4 282 0
1164 -27 1268 -28 1283 -15 11 9 14 7 15 -7 0 -11 3 -14 6 -6 2 6 10 9 16 5 7
-4 30 -8 52 -9 22 -1 34 1 28 3 -21 8 -15 20 9 18 12 -1 24 -7 26 -13 2 -7 9
-9 15 -5 7 4 21 9 32 10 16 3 17 1 5 -7 -13 -8 -13 -10 2 -10 9 0 20 5 23 10
4 7 12 7 18 2 15 -10 48 -9 66 2 9 6 12 5 8 -1 -5 -7 20 -11 71 -11 42 0 86
-2 97 -5 11 -2 26 0 33 6 10 8 16 7 23 -4 7 -12 9 -12 9 1 0 13 1 13 10 0 8
-13 10 -13 10 0 0 11 3 11 12 2 7 -7 17 -12 22 -12 6 0 4 5 -4 11 -12 9 -11
10 5 4 11 -4 26 -10 34 -13 8 -3 12 -1 8 4 -3 6 5 10 18 10 13 0 21 -4 19 -8
-3 -4 0 -8 5 -8 6 0 11 5 11 10 0 7 6 7 18 1 11 -6 24 -6 32 -1 9 5 19 5 27
-2 10 -8 13 -7 13 3 0 12 2 12 9 1 4 -8 11 -13 15 -13 3 1 7 1 9 0 16 -6 120
-2 124 5 4 5 1 6 -7 1 -8 -5 -11 -4 -6 3 4 6 13 9 21 6 8 -4 13 -10 10 -14 -3
-5 3 -7 12 -5 10 2 22 4 26 4 5 1 5 6 1 12 -3 6 4 5 17 -3 27 -16 37 -17 58
-4 9 6 12 5 8 0 -3 -5 3 -10 14 -10 10 0 19 5 19 11 0 5 4 4 9 -4 5 -8 11 -9
15 -3 4 7 17 7 36 2 21 -6 30 -5 30 3 0 7 5 4 11 -6 6 -10 15 -14 22 -10 21
13 68 13 60 0 -4 -7 2 -5 12 3 11 9 16 10 11 3 -4 -7 -3 -13 3 -13 5 0 13 5
16 10 4 6 13 7 23 2 17 -9 72 -8 131 1 17 3 29 1 26 -4 -4 -5 15 -7 42 -4 36
4 43 3 28 -4 -18 -9 -18 -10 5 -8 14 1 30 6 37 10 6 4 14 1 16 -5 4 -10 6 -10
6 0 1 6 10 12 22 12 11 0 18 -4 15 -8 -2 -4 11 -8 29 -8 18 0 31 4 29 8 -3 4
5 8 18 8 18 0 20 -2 8 -10 -8 -5 -10 -10 -5 -10 6 0 17 6 24 13 8 6 11 7 8 1
-4 -7 6 -11 26 -12 18 -1 42 -4 53 -6 12 -2 131 -7 265 -11 134 -4 254 -8 266
-10 11 -2 187 -6 390 -9 401 -7 696 -14 868 -21 298 -12 637 -22 1020 -30 599
-12 755 -16 855 -20 58 -3 197 -7 310 -10 113 -3 264 -7 335 -10 72 -3 297 -7
500 -10 589 -8 943 -15 1045 -20 121 -6 385 -13 705 -20 138 -3 342 -7 455
-10 113 -3 342 -7 510 -10 364 -6 717 -15 820 -20 41 -3 211 -7 378 -10 167
-2 307 -7 313 -10 5 -4 9 0 9 7 0 10 2 10 8 1 5 -8 108 -13 373 -16 202 -2
372 -8 379 -12 9 -6 11 -4 5 6 -6 11 -5 12 6 2 16 -16 73 -18 64 -2 -4 6 -14
8 -24 5 -9 -4 -5 3 9 13 20 16 22 21 10 26 -19 7 -50 3 -69 -9 -10 -6 -12 -5
-7 2 8 14 -111 11 -134 -3 -8 -5 -11 -4 -6 3 3 6 2 13 -4 17 -5 3 -10 0 -10
-7 0 -10 -3 -9 -11 2 -9 12 -10 11 -6 -8 3 -12 1 -20 -4 -16 -5 3 -9 13 -10
22 0 10 -3 12 -6 5 -3 -10 -10 -10 -26 -1 -12 6 -23 12 -24 12 -1 1 -9 -8 -18
-19 -9 -11 -14 -15 -11 -8 4 6 -7 16 -25 22 -25 8 -29 8 -21 -2 8 -9 4 -12
-13 -12 -16 0 -20 4 -14 11 6 8 -12 12 -66 13 -41 1 -83 4 -93 6 -10 2 -74 6
-143 9 -171 9 -301 16 -384 21 -38 3 -110 7 -160 10 -49 3 -108 8 -130 10 -22
2 -110 7 -195 10 -85 3 -207 8 -270 10 -63 3 -167 7 -230 10 -290 11 -391 16
-465 20 -77 4 -180 8 -515 20 -85 3 -177 8 -205 10 -27 2 -129 7 -225 10 -96
3 -206 8 -245 10 -38 2 -149 7 -245 10 -96 3 -206 8 -245 10 -38 2 -151 7
-250 10 -99 3 -224 8 -277 10 -54 3 -142 7 -195 10 -198 10 -322 15 -473 20
-334 11 -411 15 -665 30 -44 3 -177 10 -295 15 -350 16 -431 20 -500 25 -36 2
-123 7 -195 10 -71 3 -173 7 -225 10 -52 2 -171 7 -265 11 -93 3 -177 7 -185
9 -8 2 -105 6 -215 10 -110 4 -207 9 -216 10 -9 2 -129 7 -265 10 -137 4 -271
8 -299 9 -27 1 -56 -3 -64 -8 -11 -8 -13 -8 -7 2 9 15 1 15 -26 1 -15 -8 -19
-8 -14 0 10 15 -7 14 -23 -1 -8 -7 -11 -8 -8 -3 3 6 -16 10 -48 9 -30 0 -52 2
-50 5 1 3 -55 5 -126 5 -71 -1 -132 2 -135 7 -2 4 -15 4 -28 -1 -15 -5 -27 -5
-35 3 -7 7 -11 7 -11 0 0 -6 -11 -8 -26 -5 -19 3 -25 1 -20 -6 5 -8 2 -10 -8
-6 -9 3 -14 9 -12 13 3 4 -4 7 -15 7 -10 0 -19 -5 -19 -11 0 -5 -4 -4 -8 3 -6
9 -41 14 -109 16 -55 2 -106 7 -113 11 -7 5 -11 4 -7 -1 3 -5 -20 -8 -51 -7
-32 1 -63 -4 -71 -10 -12 -9 -13 -9 -7 1 6 11 0 12 -31 5 -21 -4 -65 -6 -98
-4 -33 2 -75 4 -92 5 -18 0 -33 5 -33 10 0 5 -8 2 -17 -5 -9 -8 -14 -9 -11 -4
4 7 -12 12 -44 13 -28 1 -64 5 -82 8 -56 10 -74 11 -86 4 -6 -4 -29 -4 -51 0
-21 4 -39 4 -39 0 0 -10 -27 -7 -37 5 -5 4 -1 5 7 0 8 -5 12 -4 7 0 -10 12
-107 14 -114 2 -3 -4 -14 0 -26 10 -11 10 -17 12 -13 6 8 -14 -6 -18 -18 -6
-9 10 -37 13 -31 4 2 -4 -2 -8 -10 -8 -8 0 -12 5 -8 10 3 5 -3 7 -13 5 -11 -2
-18 -10 -16 -17 1 -7 -2 -10 -8 -6 -6 3 -8 9 -6 13 6 10 -67 8 -83 -3 -10 -5
-12 -4 -7 3 10 16 -26 15 -43 0 -8 -7 -11 -8 -8 -2 4 8 -18 11 -71 11 -66 -1
-100 3 -147 13 -22 5 -36 -1 -30 -12 4 -7 1 -6 -7 2 -14 16 -138 22 -138 7 0
-5 -4 -5 -10 -2 -25 15 -117 23 -340 28 -58 1 -109 5 -115 9 -5 3 -54 5 -107
4 -54 -1 -98 0 -98 4 0 3 -64 6 -142 5 -79 0 -147 2 -153 5 -5 2 -47 6 -93 7
-64 2 -81 0 -76 -10 6 -9 5 -9 -7 0 -8 6 -34 14 -57 18 -35 5 -42 4 -36 -7 6
-11 5 -11 -8 0 -11 9 -18 10 -23 2 -3 -6 -12 -7 -18 -3 -12 8 -63 10 -292 17
-71 1 -132 4 -135 5 -17 8 -56 6 -62 -3 -6 -8 -8 -8 -8 0 0 8 -37 13 -117 14
-65 1 -164 3 -220 4 -82 3 -103 0 -108 -12 -3 -9 -9 -11 -18 -5 -15 11 -77 10
-96 -1 -10 -6 -12 -5 -7 2 5 8 -4 12 -26 13 -70 4 -319 5 -322 2z m-109 -48
c0 -8 -4 -12 -9 -9 -5 3 -6 10 -3 15 9 13 12 11 12 -6z m4333 -125 c18 -12 2
-12 -25 0 -13 6 -15 9 -5 9 8 0 22 -4 30 -9z m190 4 c0 -8 -19 -13 -24 -6 -3
5 1 9 9 9 8 0 15 -2 15 -3z m-2196 -152 c3 -5 -1 -9 -9 -9 -8 0 -15 4 -15 9 0
4 4 8 9 8 6 0 12 -4 15 -8z m1650 -40 c3 -5 -1 -9 -9 -9 -8 0 -12 4 -9 9 3 4
7 8 9 8 2 0 6 -4 9 -8z m9399 -225 c-2 -4 -3 -13 -4 -19 0 -10 -2 -10 -6 0 -2
6 -10 9 -15 6 -6 -4 -8 -2 -4 4 3 5 0 13 -6 16 -7 2 -2 3 12 2 14 -2 24 -6 23
-9z m52 1 c5 4 5 1 1 -6 -6 -10 -11 -10 -22 -1 -8 6 -14 14 -14 16 0 3 6 0 13
-6 8 -6 18 -7 22 -3z m46 -1 c-6 -8 -7 -18 -3 -23 4 -4 -1 -2 -10 5 -19 14
-25 26 -9 16 5 -3 12 -1 16 5 3 5 9 10 12 10 3 0 0 -6 -6 -13z m84 4 c-3 -2 1
-11 8 -20 10 -14 10 -14 -4 -4 -9 7 -20 9 -24 5 -5 -4 -5 -1 -1 6 5 8 1 12
-11 12 -11 0 -25 -6 -33 -12 -12 -11 -12 -10 -1 5 8 10 25 16 42 15 15 -1 26
-4 24 -7z m-248 -16 c0 -8 -4 -12 -9 -9 -5 3 -6 10 -3 15 9 13 12 11 12 -6z
m393 11 c0 -2 -8 -10 -17 -17 -16 -13 -17 -12 -4 4 13 16 21 21 21 13z m160
-22 c0 -8 -19 -13 -24 -6 -3 5 1 9 9 9 8 0 15 -2 15 -3z m-12457 -762 c14 -15
15 -19 2 -19 -8 0 -12 4 -9 9 3 4 0 8 -5 8 -6 0 -11 5 -11 10 0 14 5 13 23 -8z
m3061 -3190 c3 -5 -1 -9 -9 -9 -8 0 -12 4 -9 9 3 4 7 8 9 8 2 0 6 -4 9 -8z
m779 -425 c3 -8 -1 -14 -8 -14 -7 0 -11 6 -8 14 3 7 6 13 8 13 2 0 5 -6 8 -13z
m1352 -147 c8 7 12 5 12 -4 0 -16 -23 -15 -37 2 -7 9 -7 9 2 2 7 -6 16 -6 23
0z m1570 -20 c10 -11 16 -20 13 -20 -3 0 -13 9 -23 20 -10 11 -16 20 -13 20 3
0 13 -9 23 -20z m326 -7 c13 -16 12 -17 -3 -4 -17 13 -22 21 -14 21 2 0 10 -8
17 -17z m-1211 -7 c0 -11 -19 -15 -25 -6 -3 5 1 10 9 10 9 0 16 -2 16 -4z
m980 -21 c14 -19 14 -19 -2 -6 -10 7 -18 18 -18 24 0 6 1 8 3 6 1 -2 9 -13 17
-24z m415 16 c3 -5 2 -12 -3 -15 -5 -3 -9 1 -9 9 0 17 3 19 12 6z m-908 -25
c0 -8 -6 -12 -15 -9 -11 5 -11 7 0 14 7 5 13 9 14 9 0 0 1 -6 1 -14z m33 0 c0
-3 -4 -8 -10 -11 -5 -3 -10 -1 -10 4 0 6 5 11 10 11 6 0 10 -2 10 -4z m894 -4
c3 -5 -1 -9 -9 -9 -8 0 -12 4 -9 9 3 4 7 8 9 8 2 0 6 -4 9 -8z m-281 -17 c-3
-9 -8 -14 -10 -11 -3 3 -2 9 2 15 9 16 15 13 8 -4z m277 -9 c0 -2 -7 -9 -15
-16 -13 -11 -14 -10 -9 4 5 14 24 23 24 12z m207 -13 c0 -9 -4 -10 -14 -2 -7
6 -13 12 -13 14 0 1 6 2 13 2 8 0 14 -6 14 -14z m33 -3 c0 -5 -2 -10 -4 -10
-3 0 -8 5 -11 10 -3 6 -1 10 4 10 6 0 11 -4 11 -10z m665 -20 c-5 -8 -11 -8
-17 -2 -6 6 -7 16 -3 22 5 8 11 8 17 2 6 -6 7 -16 3 -22z m-256 7 c8 -10 7
-14 -2 -14 -8 0 -14 6 -14 14 0 7 1 13 2 13 2 0 8 -6 14 -13z m-144 -6 c3 -5
2 -12 -3 -15 -5 -3 -9 1 -9 9 0 17 3 19 12 6z m59 -9 c3 -5 -1 -9 -9 -9 -8 0
-12 4 -9 9 3 4 7 8 9 8 2 0 6 -4 9 -8z"/>
<path d="M27036 11713 c-4 -5 -16 -9 -27 -9 -10 -1 -29 -2 -40 -3 -18 -1 -19
-3 -9 -16 10 -12 16 -13 28 -3 13 11 14 11 8 0 -5 -9 2 -12 31 -9 43 3 66 14
58 27 -6 10 15 8 33 -3 7 -5 12 -3 12 4 0 7 3 10 6 6 3 -3 3 -11 -1 -17 -5 -8
-11 -8 -23 2 -15 10 -15 10 -4 -2 14 -16 102 -23 102 -8 0 5 -6 6 -12 2 -7 -4
-10 -3 -5 1 15 17 47 15 48 -3 0 -14 2 -14 9 3 7 17 9 17 9 3 1 -20 16 -24 26
-8 3 6 0 10 -7 10 -10 0 -10 2 1 9 9 6 -3 10 -38 12 -28 2 -51 0 -51 -5 0 -5
-3 -6 -7 -3 -3 4 -12 2 -20 -5 -11 -8 -12 -7 -7 6 5 14 -2 16 -53 16 -33 0
-63 -3 -67 -7z m35 -17 c-1 -16 -28 -15 -28 1 0 7 7 13 14 11 8 -2 14 -7 14
-12z"/>
<path d="M27320 11693 c11 -8 17 -19 14 -25 -4 -7 -2 -8 5 -4 9 6 9 11 -1 24
-11 13 -10 15 4 9 10 -3 19 -3 22 1 3 4 -11 8 -30 9 -34 1 -34 0 -14 -14z"/>
<path d="M9307 10663 c-3 -5 -33 -8 -66 -7 -34 0 -61 -3 -61 -7 0 -4 -16 -6
-35 -4 -19 1 -35 -1 -35 -5 0 -4 -17 -7 -37 -8 -21 0 -49 -3 -63 -5 -14 -3
-29 -5 -33 -6 -5 0 -5 -7 -1 -13 6 -10 5 -10 -7 -1 -12 10 -18 10 -27 1 -8 -8
-12 -8 -12 -1 0 7 -12 7 -39 0 -22 -6 -38 -13 -36 -16 2 -3 -17 -6 -42 -7 -27
0 -48 -6 -54 -15 -5 -8 -9 -10 -9 -5 0 6 -7 1 -15 -10 -11 -14 -14 -15 -9 -2
5 14 0 15 -38 7 -61 -14 -246 -78 -292 -101 -30 -15 -36 -22 -25 -29 9 -6 10
-9 2 -9 -6 0 -14 4 -18 10 -9 14 -52 -8 -52 -27 0 -13 3 -12 14 3 7 10 13 14
13 8 0 -5 5 -2 10 6 6 9 10 10 10 3 0 -6 -13 -20 -29 -29 -24 -14 -27 -20 -18
-35 6 -10 14 -16 18 -13 5 2 6 -5 4 -17 -3 -15 0 -19 11 -15 9 3 20 6 25 6 6
0 7 6 3 13 -5 8 -2 8 9 -2 15 -12 17 -11 17 2 0 9 4 18 9 21 5 4 7 -2 4 -12
-2 -10 5 -26 18 -37 12 -11 19 -14 14 -6 -6 11 -4 13 10 7 14 -5 16 -4 6 8 -9
11 -8 15 4 20 9 3 13 2 10 -4 -3 -6 -1 -10 4 -10 6 0 11 6 11 13 0 8 4 7 10
-3 9 -13 10 -13 11 0 1 8 1 18 1 21 -1 3 6 6 14 6 10 0 11 -4 4 -11 -5 -5 -10
-15 -10 -21 0 -5 4 -4 9 4 6 10 13 10 29 2 15 -8 23 -7 32 4 6 8 9 18 6 23 -3
5 1 9 8 9 9 0 12 -7 8 -16 -4 -12 0 -11 18 4 13 11 21 15 17 9 -3 -6 0 -11 8
-11 8 0 14 3 13 6 -2 18 4 21 22 11 14 -8 20 -8 20 0 0 6 4 9 9 6 4 -3 16 3
26 14 12 14 22 17 34 11 21 -11 54 6 44 22 -3 7 3 4 14 -6 16 -14 23 -15 29
-6 5 8 3 10 -7 4 -12 -7 -12 -5 -1 6 11 12 14 12 22 -1 8 -12 10 -11 10 5 1
19 1 19 11 2 10 -18 12 -18 34 3 15 14 25 18 30 10 5 -8 11 -8 21 1 11 9 14 8
14 -2 0 -9 3 -10 8 -4 11 15 112 20 412 19 240 -1 289 -3 390 -23 191 -37 253
-50 305 -65 28 -7 85 -19 128 -26 42 -7 77 -17 77 -22 0 -5 -6 -6 -12 -2 -10
5 -10 4 -1 -6 15 -17 66 -22 60 -7 -2 7 1 18 8 24 10 9 14 9 19 -2 3 -8 1 -15
-4 -15 -6 0 -10 -5 -10 -11 0 -8 4 -8 14 1 8 6 12 19 10 28 -5 15 -4 15 6 -1
6 -9 9 -21 5 -26 -8 -14 24 -6 38 9 10 12 9 12 -4 2 -15 -11 -16 -9 -14 18 1
17 5 34 9 38 4 4 7 3 6 -3 -5 -23 1 -32 23 -31 12 1 21 -4 20 -11 -2 -7 4 -10
13 -6 15 5 15 7 0 15 -9 5 -21 19 -26 31 -10 20 -10 21 4 4 15 -20 24 -21 44
-5 9 8 11 7 7 -5 -7 -18 11 -32 20 -17 4 6 -1 20 -11 31 -13 14 -20 16 -30 8
-11 -9 -15 -7 -20 5 -3 9 -10 14 -14 11 -5 -3 -6 4 -3 15 5 18 -5 25 -30 21
-5 -1 -6 2 -3 7 3 5 -8 16 -25 26 -16 9 -29 15 -29 11 0 -3 -12 2 -27 12 -27
17 -28 17 -13 -1 14 -18 14 -18 -7 -6 -12 8 -19 18 -17 22 3 4 -1 8 -10 8 -8
0 -16 5 -18 10 -2 6 -20 12 -41 13 -20 1 -37 5 -37 10 0 4 -8 7 -18 7 -10 0
-23 5 -28 10 -6 6 -26 12 -45 14 -19 3 -54 12 -79 21 -40 14 -91 23 -167 28
-13 0 -23 4 -23 8 0 4 -8 8 -17 8 -10 0 -45 3 -78 6 -63 7 -132 12 -279 20
-63 4 -93 1 -104 -7 -13 -10 -14 -10 -8 0 5 8 1 12 -11 12 -11 0 -25 -6 -32
-12 -11 -10 -13 -10 -7 0 8 13 0 17 -7 5z m-732 -312 c3 -5 2 -12 -3 -15 -5
-3 -9 1 -9 9 0 17 3 19 12 6z m-147 -36 c-3 -3 -9 2 -12 12 -6 14 -5 15 5 6 7
-7 10 -15 7 -18z m1907 6 c3 -5 2 -12 -3 -15 -5 -3 -9 1 -9 9 0 17 3 19 12 6z"/>
<path d="M32625 10553 c-16 -2 -83 -10 -147 -18 -332 -42 -709 -187 -1021
-392 -310 -204 -617 -547 -800 -893 -215 -406 -321 -820 -319 -1250 1 -58 1
-147 1 -198 0 -81 2 -92 15 -80 8 7 10 15 5 16 -5 2 -9 17 -9 33 0 18 4 28 10
24 6 -4 5 5 -2 20 -9 20 -9 31 -1 44 9 14 9 22 0 31 -9 10 -9 11 1 6 6 -4 12
-2 12 3 0 6 -6 11 -12 11 -9 0 -8 4 2 10 13 9 13 10 0 10 -12 0 -12 2 -2 9 8
4 11 19 8 34 -2 15 -1 29 3 31 4 3 9 28 10 57 1 28 6 70 11 93 5 22 20 104 34
182 59 326 190 642 384 927 193 284 492 566 780 736 39 24 72 47 72 52 0 5 3
8 8 7 4 -1 45 17 92 39 471 229 1016 306 1500 212 230 -45 425 -107 625 -198
33 -16 77 -33 98 -40 20 -7 35 -17 32 -22 -4 -5 1 -6 10 -3 9 4 27 -6 47 -25
29 -28 47 -36 71 -32 5 1 6 -3 2 -8 -5 -10 23 -31 37 -28 3 1 21 -11 40 -28
18 -16 67 -55 109 -86 83 -62 176 -146 285 -259 271 -280 476 -620 584 -965
60 -195 72 -230 81 -239 14 -15 11 5 -16 138 -92 457 -338 917 -680 1275 -115
119 -336 304 -357 298 -4 -1 -13 7 -21 17 -13 18 -30 25 -64 28 -7 1 -10 4 -8
8 6 9 -23 35 -49 44 -17 6 -17 4 -5 -11 7 -10 0 -7 -16 7 -17 14 -31 28 -33
33 -2 4 -8 5 -13 1 -5 -3 -9 1 -9 9 0 16 -27 30 -40 22 -4 -3 -10 2 -14 10 -3
8 -12 15 -21 15 -8 0 -15 4 -15 10 0 5 -3 9 -7 8 -14 -3 -53 13 -53 22 0 9
-27 20 -44 19 -5 0 -12 3 -15 8 -7 11 -111 56 -201 88 -236 84 -553 136 -810
133 -74 0 -148 -3 -165 -5z m1493 -408 c-3 -3 -9 2 -12 12 -6 14 -5 15 5 6 7
-7 10 -15 7 -18z"/>
<path d="M8280 10396 c0 -8 -4 -18 -10 -21 -6 -4 -7 1 -3 11 5 14 2 13 -15 -4
-12 -12 -28 -19 -35 -16 -7 2 -22 -5 -33 -17 -10 -13 -13 -19 -5 -14 11 6 13
4 8 -9 -4 -10 -7 -25 -8 -34 -1 -11 -4 -8 -10 8 l-8 25 2 -25 c1 -14 6 -24 11
-23 11 2 36 70 28 78 -3 3 0 5 6 5 12 0 14 -9 16 -62 1 -14 5 -30 10 -35 5 -4
6 -3 3 4 -10 17 9 60 27 60 8 0 13 -4 10 -9 -4 -5 1 -8 9 -6 9 2 22 -6 30 -16
11 -15 16 -16 22 -6 5 9 4 11 -3 6 -7 -4 -13 -2 -13 3 -3 20 -5 26 -19 51 -8
14 -13 33 -11 43 1 9 0 17 -3 17 -3 0 -6 -6 -6 -14z m14 -52 c3 -8 2 -12 -4
-9 -6 3 -10 10 -10 16 0 14 7 11 14 -7z"/>
<path d="M10486 10397 c3 -10 9 -15 12 -12 3 3 0 11 -7 18 -10 9 -11 8 -5 -6z"/>
<path d="M8206 10315 c-3 -9 -6 -22 -5 -28 0 -7 5 -1 10 12 5 13 8 26 5 28 -2
2 -6 -3 -10 -12z"/>
<path d="M8250 10301 c0 -25 6 -27 13 -6 4 8 2 17 -3 20 -6 4 -10 -3 -10 -14z"/>
<path d="M8368 10302 c-3 -11 0 -19 7 -19 7 0 10 8 7 19 -2 10 -6 18 -7 18 -1
0 -5 -8 -7 -18z"/>
<path d="M8390 10311 c0 -6 4 -13 10 -16 6 -3 7 1 4 9 -7 18 -14 21 -14 7z"/>
<path d="M8279 10293 c-8 -9 -9 -14 -2 -10 6 4 13 1 16 -5 3 -7 4 -3 4 10 -1
26 -1 26 -18 5z"/>
<path d="M7669 9895 c-1 -5 -1 -14 0 -18 1 -5 -4 -5 -11 -1 -19 12 -39 14 -32
3 3 -5 1 -9 -5 -9 -6 0 -8 -8 -5 -17 5 -16 4 -16 -6 0 -11 17 -13 18 -31 1
-10 -9 -16 -21 -12 -27 3 -6 1 -7 -5 -3 -16 9 -120 -118 -222 -272 -97 -146
-186 -313 -248 -468 -73 -181 -152 -483 -177 -673 -26 -197 -17 -479 20 -613
13 -51 14 -47 11 117 -6 384 39 650 160 943 107 259 266 530 420 719 46 56 84
107 84 114 0 7 3 9 7 6 9 -10 32 25 33 49 0 28 10 36 27 22 11 -9 12 -7 7 7
-5 12 -4 16 3 12 16 -10 10 17 -7 39 -14 17 -14 17 12 0 15 -10 25 -23 21 -29
-3 -6 -1 -7 6 -3 8 5 9 12 2 19 -6 8 -5 19 5 31 8 11 14 27 14 35 -1 9 -9 1
-19 -18 -14 -27 -19 -30 -24 -17 -4 9 -3 15 2 12 5 -3 12 1 15 10 9 24 7 28
-8 15 -11 -10 -17 -8 -25 6 -6 10 -11 14 -12 8z m21 -90 c0 -12 -19 -12 -23 0
-4 9 -1 12 9 8 7 -3 14 -7 14 -8z m-57 -82 c-3 -7 -10 -13 -16 -13 -8 0 -8 3
0 11 6 6 9 19 6 28 -4 13 -3 13 5 2 6 -8 8 -20 5 -28z"/>
<path d="M11350 9808 c-5 -13 -9 -17 -9 -10 -1 6 -6 12 -11 12 -7 0 -7 -6 0
-19 5 -11 6 -22 1 -25 -12 -8 -21 4 -14 20 7 19 -27 31 -37 13 -6 -10 22 -45
98 -124 146 -150 226 -242 311 -357 50 -69 77 -98 92 -98 11 0 17 5 14 10 -4
6 -11 8 -16 5 -5 -4 -9 -1 -9 5 0 6 -6 8 -12 5 -7 -4 -4 1 6 9 11 9 24 16 29
16 4 0 5 5 2 10 -4 6 -11 8 -16 5 -5 -3 -6 1 -3 10 4 10 -15 49 -51 103 -81
122 -333 432 -351 432 -8 0 -19 -10 -24 -22z m30 -8 c-9 -6 -9 -9 -1 -13 8 -4
8 -5 0 -3 -7 1 -13 9 -15 18 -1 11 3 15 13 11 11 -4 12 -8 3 -13z"/>
<path d="M38014 8970 c-28 -4 -61 -13 -75 -20 -37 -19 -69 -52 -62 -63 3 -6 1
-7 -4 -4 -14 9 -37 -19 -27 -34 4 -8 3 -9 -4 -5 -7 4 -12 1 -12 -8 0 -9 -5
-16 -11 -16 -5 0 -7 -4 -4 -10 3 -5 2 -10 -3 -10 -6 0 -13 -7 -16 -16 -5 -12
-3 -14 7 -8 7 5 5 1 -6 -8 -10 -9 -19 -29 -20 -43 -1 -14 -8 -29 -15 -34 -7
-4 -14 -14 -15 -22 -2 -8 -7 -20 -11 -28 -7 -10 -5 -12 5 -7 8 4 6 1 -3 -7
-10 -8 -18 -24 -18 -36 0 -11 -5 -21 -11 -21 -5 0 -8 -4 -4 -9 3 -5 1 -13 -5
-16 -8 -5 -8 -11 0 -20 8 -10 8 -15 -1 -21 -8 -5 -10 -3 -4 7 6 11 5 11 -4 3
-7 -6 -15 -27 -18 -45 -3 -19 -10 -37 -16 -41 -6 -3 -10 -20 -10 -37 0 -16 -4
-28 -8 -26 -6 4 -16 -18 -24 -55 -3 -10 1 -8 11 4 8 11 14 15 14 8 0 -6 -9
-17 -20 -25 -11 -8 -17 -17 -13 -20 3 -4 0 -7 -7 -7 -7 0 -10 -3 -7 -7 4 -3 3
-11 -2 -17 -14 -19 -43 -115 -37 -125 4 -5 2 -11 -3 -13 -10 -4 -63 -190 -86
-304 -9 -45 -15 -103 -13 -130 l4 -49 21 45 c11 25 49 113 83 195 35 83 79
186 98 230 19 44 35 90 36 102 1 11 4 19 8 17 3 -2 11 10 17 26 5 17 7 30 3
30 -4 0 1 5 11 11 9 6 15 15 11 20 -3 6 -12 5 -22 -3 -15 -12 -16 -11 -4 4 8
10 20 14 29 11 11 -4 14 -2 9 5 -4 7 -2 12 4 12 8 0 8 6 0 21 -7 11 -9 23 -6
27 3 3 6 0 6 -6 0 -7 5 -12 11 -12 5 0 8 4 4 9 -3 5 2 16 10 24 17 18 19 39 5
53 -7 7 -6 11 4 11 8 0 12 -5 9 -10 -4 -6 -1 -7 6 -3 7 5 10 14 7 22 -3 8 0
13 6 11 15 -3 17 22 5 48 -8 16 -7 18 3 8 19 -18 53 26 37 46 -9 11 -9 13 -1
8 7 -4 15 0 18 9 3 8 2 12 -4 9 -6 -3 -7 1 -4 9 3 9 9 14 13 12 3 -2 12 2 19
10 7 8 9 14 5 14 -4 0 -1 5 7 10 9 6 11 10 3 10 -7 0 2 16 20 35 18 19 45 50
60 70 42 52 130 88 327 134 96 23 202 47 235 55 56 13 41 14 -220 13 -154 0
-303 -4 -331 -7z m-163 -423 c-10 -9 -11 -8 -5 6 3 10 9 15 12 12 3 -3 0 -11
-7 -18z m-115 -13 c1 -9 0 -13 -4 -10 -3 4 -7 14 -8 22 -1 9 0 13 4 10 3 -4 7
-14 8 -22z m-32 -53 c3 -5 -2 -15 -12 -22 -15 -12 -16 -12 -5 2 7 9 10 19 6
22 -3 4 -4 7 0 7 3 0 8 -4 11 -9z m6 -56 c0 -2 -6 -8 -13 -14 -10 -8 -14 -7
-14 2 0 8 6 14 14 14 7 0 13 -1 13 -2z m-36 -71 c3 -8 2 -12 -4 -9 -6 3 -10
10 -10 16 0 14 7 11 14 -7z"/>
<path d="M30359 7713 c-4 -30 -4 -82 0 -78 7 7 13 85 6 85 -3 0 -5 -3 -6 -7z"/>
<path d="M30365 7621 c-3 -5 -2 -12 3 -15 5 -3 9 1 9 9 0 17 -3 19 -12 6z"/>
<path d="M20116 7142 c-3 -6 -1 -14 5 -17 15 -10 25 3 12 16 -7 7 -13 7 -17 1z"/>
<path d="M21135 7120 c-4 -6 -12 -7 -18 -4 -7 4 -8 3 -4 -1 13 -15 37 -14 37
1 0 16 -6 18 -15 4z"/>
<path d="M21242 7108 c2 -5 8 -9 13 -9 5 0 11 4 13 9 1 5 -4 9 -13 9 -9 0 -14
-4 -13 -9z"/>
<path d="M20816 7102 c-2 -4 4 -8 14 -8 10 0 16 4 14 8 -3 4 -9 8 -14 8 -5 0
-11 -4 -14 -8z"/>
<path d="M22653 7083 c-43 -4 -48 -9 -37 -37 8 -20 34 -9 28 12 -3 9 1 6 9 -8
10 -15 12 -31 7 -40 -7 -13 -2 -16 33 -15 59 0 72 11 47 37 -11 12 -17 25 -14
29 2 4 -5 7 -16 6 -25 -2 -25 -9 0 -25 11 -7 20 -20 19 -30 0 -13 -2 -12 -9 6
-12 27 -24 29 -17 2 3 -11 1 -18 -4 -14 -5 3 -9 15 -9 27 0 18 -2 19 -10 7
-13 -20 -13 -4 1 21 5 11 13 17 17 15 5 -3 14 -1 22 5 16 9 18 9 -67 2z"/>
<path d="M22737 7065 c-7 -16 16 -39 27 -27 4 4 6 0 4 -8 -1 -8 2 -14 8 -13 6
1 11 -5 11 -12 0 -11 -4 -12 -13 -4 -7 6 -14 6 -18 1 -9 -15 24 -20 123 -18
50 0 91 -2 91 -5 0 -3 30 -6 68 -7 37 -1 111 -6 165 -10 63 -5 101 -4 109 3 8
7 9 6 4 -2 -5 -9 3 -12 29 -11 19 1 35 6 35 12 0 7 3 8 8 1 4 -6 32 -10 62
-10 30 0 61 -4 69 -10 12 -8 13 -7 6 5 -4 8 -15 23 -23 33 -8 9 -12 20 -9 24
4 3 7 1 7 -7 0 -10 3 -10 15 0 12 10 14 8 11 -7 -2 -10 3 -27 11 -38 13 -19
14 -19 9 8 -3 16 -1 25 5 22 5 -4 7 -11 4 -16 -4 -5 -1 -9 5 -9 6 0 9 -4 6 -8
-2 -4 4 -8 14 -8 10 0 16 4 14 8 -3 4 4 8 15 8 11 0 25 8 30 18 8 13 10 14 11
2 0 -11 2 -12 8 -3 5 9 12 6 21 -10 13 -20 13 -21 -2 -8 -11 9 -17 10 -17 2 0
-6 5 -11 10 -11 6 0 13 0 18 0 12 0 9 23 -6 48 -10 15 -18 19 -26 13 -6 -5
-15 -11 -21 -13 -5 -1 -9 -7 -7 -13 2 -5 0 -6 -5 -2 -4 5 -8 14 -8 20 0 15
-45 17 -64 3 -11 -8 -13 -8 -7 2 6 10 -1 12 -26 11 -51 -3 -70 0 -64 10 3 5
-23 7 -59 6 -36 -1 -63 1 -61 4 3 4 -28 7 -67 8 -40 0 -89 4 -111 8 -30 5 -37
4 -30 -7 6 -10 5 -10 -9 1 -10 8 -34 12 -61 10 -24 -2 -42 -1 -40 2 2 4 -18 6
-44 6 -26 0 -75 2 -109 7 -49 5 -63 4 -63 -6 0 -8 -3 -9 -8 -3 -11 16 -49 16
-55 0z m683 -48 c0 -7 4 -6 10 3 6 9 10 10 10 3 0 -6 -5 -15 -10 -18 -8 -5 -8
-11 0 -20 8 -9 8 -15 0 -20 -6 -4 -10 -3 -9 2 1 4 0 11 -1 16 -1 4 -3 13 -4
20 -1 14 -26 17 -43 5 -7 -6 -14 -4 -19 3 -4 7 -3 9 4 5 6 -3 13 -3 16 2 7 13
46 12 46 -1z m37 -22 c0 -8 -4 -12 -9 -9 -5 3 -6 10 -3 15 9 13 12 11 12 -6z
m149 -7 c0 -10 -1 -18 -3 -18 -1 0 -7 8 -12 18 -7 13 -6 19 2 19 7 0 13 -9 13
-19z"/>
<path d="M22486 7022 c-3 -5 1 -9 9 -9 8 0 12 4 9 9 -3 4 -7 8 -9 8 -2 0 -6
-4 -9 -8z"/>
<path d="M22440 7010 c0 -5 5 -10 11 -10 5 0 7 5 4 10 -3 6 -8 10 -11 10 -2 0
-4 -4 -4 -10z"/>
<path d="M22566 7008 c3 -5 10 -6 15 -3 13 9 11 12 -6 12 -8 0 -12 -4 -9 -9z"/>
<path d="M22626 7008 c3 -5 10 -6 15 -3 13 9 11 12 -6 12 -8 0 -12 -4 -9 -9z"/>
<path d="M23690 7002 c0 -5 3 -12 8 -16 7 -7 8 -12 11 -38 1 -7 8 -5 20 6 13
12 21 14 26 6 5 -8 11 -7 23 2 12 10 14 10 8 1 -4 -8 -1 -13 9 -13 10 0 13 5
9 12 -5 7 -3 8 6 3 10 -6 9 -11 -5 -22 -17 -11 -13 -13 36 -14 30 0 63 -2 74
-4 11 -2 112 -8 225 -14 113 -6 241 -13 285 -16 216 -12 286 -16 483 -25 127
-6 220 -7 229 -1 10 5 27 5 43 -1 30 -10 51 -8 62 7 5 6 8 5 8 -3 0 -7 5 -10
10 -7 6 3 10 0 10 -7 0 -8 5 -6 11 5 6 9 14 15 19 12 5 -3 11 -1 14 4 3 5 -9
7 -27 6 -19 -2 -40 3 -51 13 -11 10 -17 12 -13 7 3 -6 2 -17 -4 -25 -7 -13 -9
-12 -9 1 0 20 -24 27 -108 36 -54 5 -65 3 -77 -13 -15 -18 -15 -18 -9 1 6 16
4 18 -6 8 -11 -10 -18 -9 -34 5 -14 12 -17 13 -11 2 6 -12 5 -13 -6 -2 -7 6
-17 12 -22 12 -4 0 -5 -6 -1 -12 6 -10 4 -10 -7 -2 -8 5 -34 9 -59 8 -25 -1
-49 1 -55 4 -14 9 -75 9 -108 0 -23 -6 -27 -5 -18 6 9 11 6 14 -14 14 -15 0
-22 -5 -18 -12 5 -8 3 -8 -8 1 -15 12 -162 28 -339 38 -58 3 -130 7 -160 10
-68 6 -235 16 -313 18 -45 2 -56 -1 -52 -12 4 -11 3 -12 -10 -1 -8 7 -24 10
-35 7 -11 -3 -23 -1 -26 4 -7 11 -24 12 -24 1z m227 -47 c0 -8 -4 -12 -9 -9
-5 3 -6 10 -3 15 9 13 12 11 12 -6z m848 -37 c5 4 5 2 2 -5 -6 -9 -18 -10 -45
-4 -2 1 0 6 3 11 5 8 11 8 19 1 7 -6 17 -7 21 -3z m395 -22 c0 -2 -7 -7 -16
-10 -8 -3 -12 -2 -9 4 6 10 25 14 25 6z"/>
<path d="M23635 6960 c-3 -5 -1 -10 4 -10 6 0 11 5 11 10 0 6 -2 10 -4 10 -3
0 -8 -4 -11 -10z"/>
<path d="M23738 6948 c-4 -9 2 -14 18 -16 13 -1 24 3 24 9 0 5 -5 7 -11 3 -6
-3 -15 -1 -19 6 -5 9 -8 8 -12 -2z"/>
<path d="M25363 6878 c4 -12 1 -18 -9 -18 -9 0 -12 5 -8 13 6 9 4 9 -7 1 -8
-6 -22 -10 -31 -9 -10 2 -18 -1 -18 -5 0 -5 56 -10 125 -12 68 -2 120 1 116 5
-5 5 -27 9 -49 10 -22 1 -43 5 -47 9 -4 4 -16 1 -27 -5 -16 -10 -22 -9 -35 8
-13 16 -15 17 -10 3z"/>
<path d="M25560 6852 c0 -5 21 -9 47 -11 26 -1 45 0 43 2 -10 9 -90 17 -90 9z"/>
<path d="M25660 6846 c0 -2 9 -6 20 -9 11 -3 18 -1 14 4 -5 9 -34 13 -34 5z"/>
<path d="M36107 2893 c-26 -2 -45 -7 -43 -11 2 -4 -11 -7 -29 -7 -19 1 -32 -2
-29 -7 3 -4 -2 -8 -11 -8 -9 0 -14 -4 -10 -9 3 -5 1 -13 -5 -16 -6 -4 -9 -1
-8 5 4 16 -30 22 -39 8 -4 -7 -1 -8 7 -3 9 5 11 4 6 -4 -4 -6 -12 -9 -17 -6
-5 4 -15 3 -21 -2 -7 -4 -19 -8 -26 -9 -8 -2 -17 -6 -20 -10 -4 -4 2 -4 13 -1
20 7 20 7 1 -8 -16 -12 -22 -12 -27 -3 -6 10 -11 10 -21 -1 -7 -8 -8 -11 -2
-8 6 3 11 0 11 -8 0 -11 -5 -12 -20 -4 -13 7 -22 8 -29 1 -13 -13 -1 -35 14
-26 6 4 5 10 -3 15 -8 5 -9 9 -3 9 6 0 18 -8 25 -17 8 -10 9 -14 2 -10 -6 4
-15 2 -18 -3 -5 -8 -13 -6 -25 5 -17 15 -19 15 -34 -6 -8 -12 -13 -27 -10 -33
3 -6 -2 -2 -11 9 l-17 20 4 -20 c2 -15 -2 -19 -16 -17 -11 2 -15 -1 -11 -7 3
-6 1 -11 -4 -11 -6 0 -11 -5 -11 -11 0 -5 4 -8 8 -5 5 3 9 -1 9 -9 0 -11 -4
-12 -14 -3 -17 14 -29 3 -17 -15 5 -7 2 -5 -7 5 -14 15 -18 15 -23 3 -3 -8 3
-19 12 -24 11 -7 12 -11 4 -11 -7 0 -10 -5 -6 -12 4 -7 3 -8 -5 -4 -6 4 -9 11
-7 15 3 4 -4 12 -15 19 -10 7 -19 9 -18 5 3 -19 -2 -34 -9 -29 -5 3 -9 0 -9
-7 0 -7 -8 -25 -18 -40 -13 -20 -21 -25 -30 -17 -9 7 -16 6 -25 -5 -7 -8 -17
-12 -23 -8 -6 4 -7 1 -3 -6 8 -13 -23 -43 -36 -35 -4 3 -5 -2 -2 -10 3 -9 1
-16 -5 -16 -6 0 -8 -6 -5 -14 3 -7 -8 -25 -25 -39 -16 -13 -27 -28 -23 -32 4
-5 1 -5 -7 0 -12 7 -11 10 2 20 9 7 13 16 9 20 -4 5 -1 5 7 0 10 -6 12 -4 6 5
-5 8 -4 11 3 6 6 -3 13 -3 16 2 3 5 -2 9 -10 9 -8 0 -25 -14 -37 -31 -11 -17
-26 -35 -32 -39 -6 -5 -2 -6 10 -3 20 6 20 6 1 -9 -11 -8 -24 -15 -30 -15 -5
0 -2 -6 9 -13 14 -11 15 -16 5 -22 -9 -6 -11 -4 -5 5 5 8 3 11 -6 8 -8 -3 -13
-11 -12 -17 2 -6 -1 -11 -6 -11 -5 0 -12 -7 -15 -16 -6 -15 -4 -15 11 -3 16
12 17 12 6 -2 -7 -9 -10 -19 -6 -23 4 -4 0 -4 -9 -1 -9 4 -18 0 -22 -10 -3 -9
-2 -13 4 -10 6 3 1 -10 -11 -29 -12 -20 -17 -36 -12 -36 4 0 2 -4 -5 -8 -11
-8 -22 -46 -25 -94 -1 -10 -5 -18 -10 -18 -5 0 -7 -11 -5 -25 3 -14 1 -28 -3
-31 -5 -3 -9 -57 -9 -120 0 -63 4 -113 8 -110 4 2 6 -11 4 -30 -2 -18 -1 -42
3 -51 5 -10 10 -27 12 -37 2 -11 7 -24 12 -30 5 -6 7 -19 5 -30 -3 -23 16 -67
27 -60 5 3 6 -1 4 -9 -3 -7 3 -21 14 -31 11 -10 17 -24 15 -31 -3 -7 0 -16 7
-21 8 -5 10 -3 4 6 -5 9 -4 11 4 6 9 -6 9 -11 -1 -24 -11 -13 -11 -14 1 -7 11
6 13 4 8 -9 -6 -14 -3 -16 16 -11 21 7 21 6 3 -7 -13 -11 -16 -17 -7 -22 6 -4
9 -11 6 -16 -3 -4 5 -6 17 -4 13 2 17 2 11 -2 -16 -7 -17 -31 -1 -40 7 -5 9
-2 6 8 -4 8 -1 15 7 15 7 0 10 -9 8 -21 -4 -17 -3 -18 6 -6 7 9 11 10 11 3 0
-6 -5 -15 -10 -18 -8 -5 -8 -11 -1 -19 6 -7 7 -17 3 -21 -4 -5 -2 -5 5 -1 6 3
14 2 18 -4 3 -5 11 -10 17 -10 5 0 0 8 -13 18 -15 13 -19 21 -10 26 6 4 10 3
9 -2 -2 -5 8 -19 22 -31 14 -13 19 -20 13 -16 -7 3 -13 1 -13 -6 0 -6 8 -9 20
-6 11 3 18 0 17 -7 -1 -6 6 -10 17 -9 13 1 15 -2 7 -10 -6 -6 -11 -17 -11 -25
0 -12 3 -12 16 -2 8 8 14 9 13 4 -4 -23 2 -35 14 -28 7 5 7 2 -2 -10 -8 -9
-10 -16 -5 -15 19 3 34 -1 34 -12 0 -5 -6 -7 -12 -3 -9 6 -9 3 1 -9 9 -12 18
-14 31 -7 14 8 17 5 15 -15 -2 -17 1 -22 11 -18 8 3 14 9 14 15 0 5 -6 6 -12
2 -10 -6 -10 -5 -1 8 7 8 11 18 8 21 -3 4 -2 5 2 2 4 -3 8 -13 10 -23 8 -41
11 -47 21 -45 6 2 14 -6 17 -17 4 -11 11 -20 17 -20 6 0 6 6 -2 15 -7 9 -10
18 -6 22 3 3 6 1 6 -6 0 -7 5 -9 10 -6 6 4 7 11 4 17 -4 7 -2 8 5 4 9 -6 9
-11 1 -21 -8 -9 -8 -15 0 -20 5 -3 10 -3 10 1 0 3 6 1 14 -5 11 -9 15 -9 20 1
3 7 3 3 1 -9 -3 -12 -1 -24 5 -28 6 -3 8 -10 5 -15 -3 -4 1 -8 8 -7 34 1 47
-5 48 -20 0 -15 2 -15 9 2 6 14 9 16 10 5 2 -8 2 -18 2 -21 -1 -3 5 -6 13 -6
8 0 12 5 9 11 -3 6 3 0 15 -14 11 -14 26 -25 33 -26 23 -2 58 -16 58 -23 0 -4
6 -8 13 -9 6 -1 46 -8 87 -17 87 -17 278 -18 299 -1 12 9 13 8 6 -3 -6 -10 -4
-12 5 -6 12 7 39 12 101 19 15 1 38 10 52 18 18 13 27 14 36 5 8 -8 11 -8 11
2 0 7 5 9 10 6 6 -4 22 1 36 10 14 9 33 14 41 11 13 -5 14 -4 3 9 -11 13 -10
14 5 9 10 -4 21 -1 26 7 6 11 9 11 9 1 0 -17 38 2 63 32 10 11 16 15 12 8 -6
-11 -3 -12 14 -3 11 7 21 16 21 22 0 6 5 7 10 4 9 -6 14 8 11 28 -1 5 3 6 9 2
6 -3 7 -11 4 -17 -5 -7 -2 -8 5 -4 7 5 10 15 6 23 -5 14 -3 14 12 2 10 -7 15
-9 11 -5 -4 5 5 19 21 30 15 12 26 26 24 32 -2 6 4 17 14 25 16 12 17 12 8 -1
-6 -10 -4 -9 6 2 9 9 20 14 25 10 5 -4 2 2 -6 12 -10 13 -10 17 -2 12 7 -4 12
-2 12 4 0 6 5 8 11 4 8 -4 8 0 0 15 -9 16 -9 21 1 21 9 0 9 3 -2 10 -11 7 -11
10 -2 10 29 0 -41 86 -102 124 -18 12 -26 13 -21 5 6 -11 5 -12 -6 -1 -17 15
-43 16 -33 0 5 -7 3 -8 -7 -2 -21 13 -31 11 -57 -13 -14 -13 -28 -20 -33 -17
-12 7 -70 -38 -65 -51 2 -7 -2 -12 -10 -12 -7 0 -11 4 -8 9 3 4 1 8 -5 8 -5 0
-12 -9 -16 -19 -4 -12 -12 -18 -21 -14 -7 3 -14 1 -14 -5 0 -5 -11 -13 -25
-16 -14 -4 -23 -10 -21 -15 3 -5 -1 -14 -9 -21 -13 -11 -14 -10 -9 6 7 19 7
19 -14 0 -15 -13 -22 -15 -22 -6 0 9 -7 7 -22 -6 -12 -10 -18 -14 -14 -7 5 9
-5 11 -36 8 -24 -2 -45 -4 -48 -5 -5 -1 -151 1 -212 4 -16 0 -28 5 -28 9 0 5
-6 5 -12 1 -22 -14 -46 -12 -41 3 4 9 0 11 -11 7 -10 -4 -16 -1 -16 7 0 8 -6
5 -16 -7 -8 -10 -13 -14 -10 -7 4 6 2 14 -4 18 -5 3 -10 0 -10 -7 0 -10 -2
-10 -9 1 -5 8 -19 12 -34 9 -20 -4 -25 -1 -22 13 2 10 1 18 -3 17 -13 -2 -47
16 -59 31 -10 14 -11 12 -7 -9 l5 -25 -13 23 c-8 12 -18 19 -23 15 -5 -4 -4
-1 3 8 9 13 9 16 -3 16 -8 0 -15 -5 -15 -11 0 -6 -4 -4 -9 4 -6 8 -7 18 -4 23
3 4 -4 11 -16 14 -12 3 -21 10 -21 15 0 6 -7 8 -14 5 -10 -4 -13 -1 -10 7 3 8
-5 21 -18 30 -12 9 -17 16 -10 16 7 0 3 9 -8 20 -12 12 -25 18 -29 15 -5 -2
-15 3 -22 13 -13 15 -12 16 4 3 21 -17 23 2 2 19 -9 7 -13 15 -11 18 3 2 -3
12 -12 21 -11 10 -12 12 -2 6 11 -7 11 -5 -2 11 -10 11 -18 26 -18 32 0 7 -4
12 -9 12 -7 0 -13 14 -21 48 -1 4 -8 15 -17 24 -9 10 -13 26 -10 38 4 15 -1
24 -16 30 -12 5 -17 9 -10 9 7 1 10 10 6 24 -3 12 -6 37 -7 54 -1 22 -6 33
-16 34 -9 0 -11 2 -3 5 7 3 10 11 7 19 -3 7 -1 16 5 20 6 3 9 0 5 -8 -3 -8 -1
-18 4 -21 5 -3 10 24 11 60 1 40 -2 64 -8 60 -5 -3 -7 3 -4 14 3 11 10 17 17
13 6 -3 8 -3 5 1 -17 18 62 227 111 296 12 17 18 35 14 42 -4 7 -4 10 1 6 10
-10 36 18 38 41 0 10 6 17 12 14 15 -5 39 23 31 35 -3 6 2 9 12 8 11 -1 16 6
15 17 -1 13 4 17 14 13 11 -5 13 -2 9 10 -5 13 -3 14 7 6 10 -8 16 -6 25 9 7
11 10 25 6 32 -5 9 -3 9 7 0 16 -15 33 -17 24 -3 -3 6 -1 10 4 10 22 0 26 2
43 17 9 8 22 12 27 8 6 -3 11 -1 11 4 0 6 3 10 8 10 4 -1 9 0 12 1 3 1 12 3
20 5 8 2 43 11 76 19 59 16 268 29 279 18 10 -11 35 -10 29 0 -4 6 1 6 13 -1
11 -6 23 -7 27 -4 3 3 6 1 6 -6 0 -7 4 -10 9 -6 5 3 13 0 17 -6 4 -8 9 -7 15
2 7 11 9 11 9 1 0 -7 5 -10 10 -7 6 4 9 1 8 -6 -2 -7 2 -13 7 -14 6 0 16 -4
24 -9 10 -7 12 -5 7 5 -4 8 -1 6 7 -3 8 -10 20 -18 26 -18 7 0 9 -5 6 -10 -8
-13 18 -8 27 5 5 6 8 3 8 -7 0 -9 5 -20 12 -24 6 -4 8 -3 5 3 -3 5 0 10 7 10
7 0 13 -7 12 -16 -1 -10 7 -16 19 -16 35 -1 48 -14 33 -33 -11 -15 -11 -15 4
-4 9 7 18 9 20 5 3 -4 3 -3 2 4 -2 6 3 14 10 16 10 4 12 -1 9 -16 -3 -16 -2
-18 5 -8 8 10 10 11 14 0 2 -7 14 -13 26 -14 15 -1 19 2 12 10 -7 8 -5 12 5
12 8 0 15 -5 15 -11 1 -6 8 0 16 14 8 14 13 17 10 8 -3 -10 -1 -20 5 -23 5 -4
9 -3 8 2 -4 25 4 46 33 78 30 35 48 105 27 105 -5 0 -9 6 -9 13 -1 16 -46 67
-60 67 -5 0 -10 6 -10 14 0 8 -5 18 -12 22 -8 5 -9 1 -5 -12 7 -18 7 -18 -8 0
-18 23 -20 40 -3 30 6 -4 8 -3 4 4 -3 6 -15 9 -26 7 -13 -2 -20 2 -20 11 0 9
5 12 12 8 7 -4 8 -3 4 5 -4 6 -11 9 -16 6 -4 -3 -10 -2 -13 2 -2 5 -2 1 0 -7
2 -10 -3 -8 -12 5 -9 11 -19 19 -23 19 -4 -1 -6 3 -4 9 2 6 -4 4 -13 -3 -13
-11 -14 -10 -9 5 5 12 4 16 -4 11 -6 -3 -13 -2 -17 4 -4 6 -10 8 -15 5 -5 -3
-15 2 -24 11 -9 8 -25 16 -36 17 -11 1 -20 5 -20 9 0 4 -5 8 -11 8 -6 0 -7 -6
-2 -12 4 -8 -2 -7 -17 2 -14 9 -32 16 -40 15 -8 0 -17 3 -20 7 -15 20 -256 32
-403 21z m-346 -160 c-12 -20 -14 -14 -5 12 4 9 9 14 11 11 3 -2 0 -13 -6 -23z
m1158 -127 c-3 -3 -11 5 -18 17 -13 21 -12 21 5 5 10 -10 16 -20 13 -22z
m-1323 -4 c-17 -16 -18 -16 -5 5 7 12 15 20 18 17 3 -2 -3 -12 -13 -22z m-82
-67 c-4 -8 -11 -15 -16 -15 -6 0 -5 6 2 15 7 8 14 15 16 15 2 0 1 -7 -2 -15z
m-41 -56 c4 -16 3 -18 -9 -8 -7 6 -11 15 -8 20 8 13 11 11 17 -12z m-19 -25
c3 -8 2 -12 -4 -9 -6 3 -10 10 -10 16 0 14 7 11 14 -7z m406 10 c0 -8 -19 -13
-24 -6 -3 5 1 9 9 9 8 0 15 -2 15 -3z m937 -56 c-3 -8 -6 -5 -6 6 -1 11 2 17
5 13 3 -3 4 -12 1 -19z m101 -1374 c-12 -12 -17 -13 -23 -3 -5 8 -4 10 4 5 6
-4 14 0 17 9 4 9 9 13 12 10 3 -3 -1 -13 -10 -21z m-1117 -81 c13 -17 13 -17
-6 -3 -11 8 -22 16 -24 17 -2 2 0 3 6 3 6 0 17 -8 24 -17z"/>
<path d="M34125 2869 c-4 -6 -14 -8 -22 -5 -9 4 -11 2 -7 -6 5 -7 3 -8 -6 -3
-14 9 -230 13 -224 4 1 -3 -3 -6 -11 -6 -8 0 -12 4 -9 8 5 9 -37 6 -53 -4 -6
-4 -14 -3 -18 3 -3 5 -11 10 -16 10 -6 0 -7 -5 -3 -12 5 -7 3 -8 -7 -2 -23 14
-51 15 -67 2 -13 -10 -14 -10 -8 0 8 14 -19 12 -43 -2 -9 -6 -12 -5 -7 2 5 8
-45 10 -176 8 -183 -4 -225 -7 -220 -19 9 -24 10 -47 2 -42 -15 9 -17 -19 -3
-34 12 -11 12 -16 -2 -31 -13 -15 -14 -19 -1 -29 15 -13 16 -35 1 -48 -4 -4
-5 -2 0 6 5 9 4 12 -3 7 -6 -3 -9 -15 -6 -26 2 -11 6 -30 9 -41 2 -12 7 -24
11 -28 4 -3 4 2 1 12 -4 11 -1 17 7 17 9 0 12 -7 9 -18 -2 -10 3 -25 12 -32
19 -15 48 -23 40 -11 -6 11 47 1 62 -11 7 -5 14 -5 18 2 3 6 12 7 18 3 19 -12
110 -11 126 1 11 8 13 8 8 -1 -5 -8 0 -11 13 -10 11 1 20 6 20 12 0 6 3 7 8 0
9 -13 42 -16 42 -4 0 5 5 9 11 9 5 0 8 -4 5 -8 -3 -5 1 -9 9 -9 8 0 12 4 9 9
-3 4 0 8 5 8 6 0 11 -4 11 -10 0 -5 10 -10 23 -9 21 0 21 1 2 9 -14 6 -15 9
-4 9 8 1 20 -4 27 -11 9 -9 16 -7 31 6 14 13 21 14 27 5 4 -7 3 -10 -4 -5 -6
3 -13 2 -17 -4 -4 -6 16 -10 55 -10 45 0 62 -4 65 -15 3 -8 7 -22 10 -30 2 -8
4 -18 4 -21 0 -4 5 -11 13 -15 10 -7 9 -9 -5 -9 -10 0 -15 -5 -12 -10 4 -6 12
-7 18 -4 7 4 9 4 5 -1 -4 -4 -3 -15 2 -25 6 -12 5 -17 -5 -17 -7 0 -11 6 -8
14 3 7 3 13 0 13 -3 0 -8 -7 -11 -15 -4 -10 3 -19 18 -25 24 -9 28 -23 13 -47
-4 -6 -3 -22 2 -35 9 -24 7 -55 -4 -66 -3 -4 -4 6 -1 21 2 14 0 29 -5 33 -5 3
-7 9 -4 14 3 5 1 11 -4 14 -10 6 -10 -12 0 -29 4 -5 5 -18 3 -29 -1 -10 2 -30
8 -45 16 -39 17 -50 6 -58 -7 -4 -8 -1 -3 7 5 9 4 11 -4 6 -9 -6 -9 -11 1 -23
9 -11 13 -48 13 -114 0 -85 -2 -96 -15 -86 -12 10 -12 7 1 -13 18 -28 18 -55
2 -85 -6 -11 -9 -30 -7 -43 3 -16 0 -21 -8 -16 -7 5 -8 3 -2 -7 4 -8 10 -22
11 -31 2 -10 4 -23 5 -30 2 -7 -3 -12 -10 -10 -8 1 -11 -2 -7 -8 3 -6 12 -7
18 -3 8 4 7 1 -1 -9 -10 -13 -10 -18 -1 -24 8 -5 9 -3 4 6 -5 8 -4 11 1 7 8
-4 11 -62 4 -62 -2 0 -10 -96 -13 -152 -1 -21 -6 -28 -13 -22 -7 6 -11 -19
-12 -83 -1 -75 2 -94 16 -105 16 -12 16 -13 0 -7 -17 6 -18 -7 -18 -181 0
-173 1 -186 16 -174 15 12 16 11 10 -9 -6 -19 -4 -23 10 -20 11 2 19 -3 19
-12 0 -22 278 -26 300 -4 13 14 15 122 15 850 0 659 3 836 13 839 6 2 120 6
252 9 132 2 240 5 240 6 0 1 11 3 25 5 64 9 93 15 98 20 3 3 6 53 7 110 1 104
-12 165 -35 165 -6 0 -8 5 -4 12 4 6 3 8 -4 4 -6 -3 -13 -2 -16 3 -4 5 -98 10
-219 11 -116 2 -243 3 -282 4 -40 1 -73 -3 -77 -9 -5 -6 -8 -5 -8 3 0 10 -5
10 -20 2 -15 -8 -20 -8 -20 2 0 9 -3 9 -10 -2 -5 -8 -12 -11 -16 -7 -4 4 -13
2 -20 -4 -8 -7 -14 -6 -20 2 -5 8 -3 9 6 4 9 -5 11 -4 6 3 -9 15 -13 15 -21 1z
m-878 -236 c0 -9 -4 -10 -14 -2 -7 6 -13 12 -13 14 0 1 6 2 13 2 8 0 14 -6 14
-14z m33 -63 c6 -11 8 -20 6 -20 -3 0 -10 9 -16 20 -6 11 -8 20 -6 20 3 0 10
-9 16 -20z m645 -757 c-1 -10 3 -25 9 -33 9 -13 9 -13 -6 -2 -13 10 -16 26 -9
50 4 11 9 -2 6 -15z m0 -52 c3 -5 2 -12 -3 -15 -5 -3 -9 1 -9 9 0 17 3 19 12
6z m-20 -371 c-1 -11 -4 -22 -7 -25 -4 -5 -4 34 1 43 4 8 7 -1 6 -18z m-2 -85
c4 -8 3 -16 -1 -19 -4 -3 -9 4 -9 15 -2 23 3 25 10 4z"/>
<path d="M30969 2865 c-1 -5 -1 -14 0 -19 1 -5 -5 -4 -13 4 -16 13 -22 2 -8
-16 4 -5 0 -1 -10 8 -22 24 -27 23 -20 -4 4 -16 2 -19 -9 -13 -10 6 -9 3 2
-11 9 -10 22 -34 30 -51 8 -18 18 -33 23 -33 4 0 2 -8 -5 -17 -10 -11 -10 -14
-1 -9 7 4 12 1 13 -8 1 -16 4 -28 9 -43 1 -5 2 -11 1 -15 0 -5 4 -8 10 -8 5 0
7 -5 3 -12 -4 -7 -3 -8 4 -4 6 4 9 14 6 24 -5 14 -4 14 4 3 7 -9 7 -23 1 -38
-6 -16 -5 -22 1 -18 6 3 11 1 11 -4 1 -6 2 -17 3 -23 1 -7 12 -13 26 -13 19 0
24 -5 22 -19 -3 -14 1 -17 13 -12 9 3 13 2 10 -3 -3 -6 2 -14 11 -19 10 -6 12
-12 6 -16 -5 -3 -13 1 -16 10 -6 17 -26 10 -26 -9 0 -8 3 -8 9 1 6 11 10 10
15 -3 3 -10 12 -15 21 -11 8 3 14 2 14 -2 -1 -4 -1 -14 0 -22 1 -13 3 -13 10
-1 6 10 8 0 5 -28 -2 -26 0 -40 6 -36 6 3 10 -5 10 -19 0 -14 0 -28 0 -31 0
-3 -3 -5 -7 -4 -5 0 -7 7 -5 15 2 9 -2 22 -8 29 -7 8 -8 20 -4 26 4 8 3 9 -4
5 -8 -4 -10 -2 -6 8 3 8 1 23 -5 33 -9 15 -10 13 -5 -12 4 -23 3 -26 -5 -15
-6 8 -11 11 -11 5 1 -5 7 -18 15 -28 7 -11 11 -25 8 -33 -3 -8 0 -20 6 -28 6
-7 7 -17 3 -21 -4 -5 -1 -5 6 -1 7 4 13 2 14 -6 0 -7 2 -17 2 -23 1 -5 5 -16
9 -22 5 -7 5 -13 1 -13 -4 0 1 -9 12 -21 10 -12 18 -23 17 -25 -8 -12 -1 -24
10 -18 7 5 6 0 -3 -11 -10 -13 -11 -16 -2 -11 10 6 13 2 10 -14 -2 -13 2 -25
9 -27 9 -3 11 8 8 39 -2 24 -1 35 2 25 2 -10 10 -14 16 -11 8 5 8 2 0 -7 -18
-19 -16 -29 5 -23 13 5 14 4 3 -4 -14 -10 -6 -36 9 -27 9 6 8 -14 -2 -30 -10
-16 31 -76 45 -68 8 4 8 1 0 -9 -7 -8 -11 -18 -8 -21 3 -4 2 -4 -2 -1 -5 3 -8
9 -8 12 -1 4 -11 22 -22 41 -18 28 -22 31 -20 13 1 -12 5 -22 10 -22 4 0 5 -5
1 -12 -5 -7 -3 -8 6 -3 10 6 12 4 7 -8 -3 -10 -2 -17 3 -17 4 0 14 -16 20 -35
6 -19 16 -35 21 -35 6 0 7 6 2 13 -11 18 -12 36 -3 42 5 3 7 -3 5 -15 -2 -11
0 -22 5 -25 13 -8 0 -36 -14 -29 -6 3 -3 -1 8 -10 10 -8 15 -19 12 -25 -4 -5
-2 -12 4 -16 6 -4 7 -11 4 -17 -5 -7 -2 -8 6 -3 10 6 12 4 7 -9 -5 -11 -3 -15
5 -10 8 5 9 2 5 -10 -4 -9 -3 -14 2 -11 5 3 12 -3 14 -12 3 -13 5 -10 6 7 1
14 5 32 10 39 6 10 8 0 4 -27 -5 -41 -1 -48 29 -43 4 0 5 -6 1 -15 -4 -11 -8
-12 -13 -4 -5 8 -9 7 -13 -3 -6 -15 9 -17 30 -4 8 5 11 1 8 -14 -3 -16 -1 -18
9 -10 11 9 12 6 8 -15 -3 -16 -7 -21 -12 -14 -5 8 -9 7 -13 -4 -4 -9 -1 -15 6
-13 7 1 11 -7 10 -18 -1 -11 0 -14 3 -7 3 6 11 9 17 5 7 -4 7 -1 -1 9 -9 11
-10 18 -2 23 6 3 8 10 6 14 -3 4 1 8 8 8 11 0 12 -4 3 -18 -8 -14 -9 -21 0
-30 14 -14 5 -51 -11 -42 -6 3 -6 0 2 -8 18 -20 15 -33 -5 -18 -17 13 -17 13
0 -7 9 -11 14 -24 11 -27 -4 -4 -1 -13 6 -22 7 -8 9 -15 5 -15 -5 0 0 -9 10
-20 10 -11 15 -20 10 -20 -4 0 -2 -6 4 -13 9 -12 17 -40 20 -69 1 -5 6 -8 12
-8 5 0 7 5 4 10 -3 6 -2 10 3 10 6 0 13 -7 16 -16 3 -8 2 -12 -4 -9 -5 3 -9
-9 -8 -29 1 -29 4 -34 15 -25 11 10 11 15 1 28 -12 14 -11 14 4 3 16 -13 16
-16 2 -37 -9 -14 -11 -25 -5 -29 5 -4 13 -1 17 5 5 8 3 9 -7 4 -12 -8 -12 -6
0 8 18 22 21 21 16 -5 -3 -12 1 -26 8 -31 8 -6 7 -7 -5 -3 -10 3 -20 0 -24 -6
-4 -7 -3 -8 4 -4 7 4 12 1 12 -7 0 -8 10 -27 22 -43 13 -15 16 -24 8 -19 -12
7 -13 6 -3 -7 7 -8 14 -27 15 -42 2 -18 7 -25 17 -21 12 5 12 3 0 -12 -8 -9
-9 -14 -3 -10 14 8 28 -20 25 -47 -2 -11 2 -16 8 -12 7 5 8 1 5 -9 -4 -8 -1
-21 5 -29 6 -7 7 -17 3 -21 -4 -5 -1 -5 6 -1 6 4 12 2 12 -4 0 -6 5 -8 13 -4
8 5 8 2 -2 -9 -12 -16 -8 -22 12 -18 5 1 6 -3 3 -8 -8 -12 4 -41 16 -41 6 0 4
8 -3 18 -13 15 -12 16 4 3 9 -8 16 -16 13 -18 -6 -6 38 -50 47 -46 4 2 7 -1 7
-8 0 -8 32 -10 120 -6 124 6 145 11 134 29 -5 8 -1 9 12 4 10 -4 16 -4 12 -1
-4 4 6 28 21 53 22 38 73 151 77 172 0 3 6 18 12 33 7 16 10 33 6 38 -3 5 -1
9 4 9 5 0 14 12 21 27 10 22 10 25 -1 17 -8 -5 -7 -2 2 6 9 8 22 31 28 49 14
41 15 44 3 37 -11 -7 -9 13 2 32 5 6 5 17 2 22 -4 6 -3 10 2 9 24 -4 33 4 33
32 0 21 4 28 13 23 7 -5 6 0 -3 11 -9 11 -10 16 -2 11 8 -5 12 0 12 14 0 13 4
19 12 14 7 -5 8 -3 3 6 -4 7 -2 15 4 20 7 4 14 13 15 21 2 8 8 26 14 41 6 15
9 35 6 43 -5 11 -2 13 11 9 15 -6 16 -4 5 17 -7 13 -9 21 -5 17 4 -4 13 -1 20
5 10 9 10 15 1 26 -8 12 -8 13 2 7 9 -6 12 -3 10 10 -2 11 2 18 8 17 10 -2 14
10 15 50 0 9 4 15 8 13 4 -3 8 1 8 9 0 8 -4 12 -8 9 -4 -2 -11 0 -14 6 -4 6
-3 10 2 9 28 -5 34 1 22 24 -11 19 -10 21 3 9 14 -11 16 -8 14 21 -1 26 2 33
13 29 9 -3 12 -1 7 6 -4 7 -2 12 5 12 7 0 4 7 -7 15 -18 13 -18 14 6 8 24 -5
24 -5 6 9 -15 12 -16 17 -6 23 9 5 11 4 6 -3 -10 -17 3 -15 20 2 18 18 19 50
2 41 -7 -4 -5 0 5 8 9 8 17 19 17 26 0 6 6 11 13 11 9 0 8 3 -2 9 -9 6 -10 11
-2 15 6 4 16 16 22 28 6 12 7 18 1 14 -5 -3 -12 0 -15 8 -6 16 1 26 17 26 6 0
4 -5 -4 -11 -13 -9 -13 -10 0 -6 8 2 16 9 16 15 1 7 3 15 4 20 1 4 1 15 0 26
-1 13 2 16 12 10 7 -4 10 -4 6 1 -4 4 -3 14 3 22 6 7 8 13 4 13 -4 0 -2 7 5
15 7 8 9 15 5 15 -4 0 -1 8 6 17 8 9 9 14 2 10 -10 -6 -11 11 -3 33 1 3 2 9 1
14 -1 5 5 3 14 -4 13 -11 14 -10 9 5 -5 11 -3 16 2 12 6 -3 9 7 8 24 -2 26 0
28 14 17 13 -11 14 -11 8 0 -4 7 -2 19 4 27 9 11 9 15 1 15 -6 0 -11 -5 -11
-12 0 -6 -3 -8 -6 -5 -9 9 16 38 26 32 5 -3 12 0 16 6 4 8 3 9 -4 5 -20 -12
-13 9 8 27 12 10 18 21 15 26 -2 5 2 11 10 15 8 3 12 12 9 21 -4 9 -1 15 8 15
10 0 14 11 12 40 -1 21 1 39 5 38 24 -3 33 4 28 22 -3 11 0 18 6 17 14 -3 60
92 53 110 -3 8 -2 12 3 9 5 -3 12 1 15 10 7 17 -17 58 -27 47 -4 -3 -7 -1 -7
6 0 8 -37 10 -142 7 -167 -5 -157 -4 -138 -16 12 -8 11 -10 -5 -10 -31 0 -47
-20 -32 -39 9 -12 9 -13 0 -7 -21 12 -34 -3 -23 -25 9 -15 7 -21 -5 -25 -8 -3
-15 -14 -15 -23 0 -9 -5 -22 -12 -29 -16 -16 4 -16 22 1 8 6 6 2 -4 -10 -10
-13 -24 -20 -30 -16 -6 3 -7 2 -3 -3 5 -5 14 -9 20 -9 17 0 20 -25 3 -31 -9
-3 -16 -10 -16 -16 0 -5 5 -6 12 -2 7 5 8 3 3 -6 -6 -10 -11 -9 -23 6 -13 18
-14 18 -7 -5 4 -15 3 -21 -3 -17 -5 3 -16 -2 -23 -12 -13 -15 -12 -16 4 -3 12
9 17 10 17 2 0 -7 5 -9 13 -5 9 6 9 5 0 -7 -6 -8 -14 -28 -17 -44 -2 -17 -5
-30 -6 -30 -1 0 -3 -8 -5 -18 -2 -11 -7 -22 -11 -25 -4 -4 -4 1 -1 10 3 10 1
20 -5 24 -7 4 -8 3 -4 -4 4 -7 3 -12 -2 -12 -10 0 -8 -47 2 -57 3 -4 1 -12 -5
-19 -6 -8 -9 -20 -6 -27 3 -8 -1 -14 -8 -14 -13 0 -10 22 7 44 5 6 5 14 1 16
-9 6 -49 -91 -45 -107 2 -4 -5 -15 -15 -23 -16 -13 -16 -13 5 -3 21 10 22 10
10 -9 -6 -11 -17 -17 -23 -14 -5 4 -7 2 -2 -2 4 -5 -1 -18 -10 -29 -17 -20
-17 -20 1 -6 18 13 19 13 11 0 -5 -8 -17 -21 -27 -28 -14 -10 -16 -18 -8 -32
15 -28 12 -36 -5 -14 -15 18 -15 18 -8 0 4 -13 3 -17 -5 -12 -8 5 -10 1 -5
-10 4 -11 3 -15 -5 -10 -6 3 -13 2 -17 -4 -3 -5 0 -10 8 -10 8 0 18 -8 22 -17
5 -15 4 -16 -6 -5 -7 6 -20 12 -29 12 -13 0 -13 -1 0 -10 13 -9 7 -14 -12 -11
-5 0 -7 -2 -7 -7 3 -20 -2 -33 -11 -27 -6 4 -10 3 -9 -2 4 -22 -2 -54 -9 -49
-5 3 -9 -1 -9 -9 0 -18 9 -19 25 -3 9 9 9 6 0 -14 -10 -21 -14 -23 -26 -12
-17 17 -28 18 -14 2 10 -14 10 -53 -1 -64 -4 -4 -1 -14 6 -23 11 -14 10 -14
-5 -2 -10 7 -15 18 -11 25 4 6 0 6 -9 -2 -16 -13 -43 -96 -39 -121 1 -7 -2
-10 -8 -7 -5 4 -12 2 -15 -3 -4 -5 -1 -13 5 -17 8 -5 9 -3 4 6 -5 9 -4 11 4 6
9 -6 9 -11 1 -21 -23 -28 -48 -85 -39 -91 5 -3 9 -11 8 -17 0 -9 -2 -9 -6 1
-8 21 -21 13 -15 -10 4 -16 2 -19 -8 -13 -9 5 -11 4 -6 -3 4 -7 15 -13 24 -13
9 -1 4 -5 -13 -9 -16 -4 -22 -8 -12 -9 10 0 16 -5 12 -11 -3 -5 -13 -6 -23 -3
-14 6 -15 4 -5 -8 10 -12 7 -21 -13 -44 -14 -17 -23 -25 -20 -20 2 6 1 17 -5
25 -7 12 -9 10 -9 -8 0 -13 -4 -21 -8 -18 -5 3 -9 -1 -10 -9 -1 -8 -3 -22 -4
-30 -1 -8 -5 -12 -9 -10 -4 3 -16 -11 -28 -31 -12 -20 -26 -32 -32 -28 -12 7
-44 75 -41 87 1 4 -3 7 -8 7 -5 0 -9 3 -8 8 3 12 -29 67 -49 83 -15 11 -15 10
2 -11 l20 -25 -22 19 c-17 14 -20 22 -12 32 7 8 7 14 -1 19 -6 3 -7 11 -4 17
5 8 1 9 -12 4 -10 -4 -15 -4 -11 0 4 4 -1 16 -10 27 -11 13 -12 17 -4 12 11
-6 13 -4 8 9 -4 10 -7 24 -7 32 0 10 -5 12 -12 8 -10 -6 -10 -4 0 8 9 11 10
18 2 23 -6 3 -7 11 -4 17 4 5 -4 4 -17 -3 -21 -11 -22 -10 -12 3 10 11 10 17
1 26 -7 7 -9 12 -5 12 4 0 3 9 -3 21 -7 11 -17 18 -24 16 -16 -6 -17 25 -2 35
7 5 7 8 -2 8 -8 0 -10 5 -6 12 5 8 1 9 -12 5 -18 -7 -18 -7 0 8 18 14 15 20
-9 15 -5 -1 -7 2 -3 6 4 4 -2 20 -14 37 -12 17 -17 27 -11 24 7 -4 14 -3 17 2
3 5 -1 11 -9 15 -8 3 -15 13 -15 21 0 9 -4 13 -10 10 -6 -3 -7 1 -4 9 3 9 11
13 18 9 6 -4 5 1 -3 10 -14 18 -26 23 -16 8 3 -5 1 -12 -4 -16 -6 -3 -8 5 -5
20 3 16 0 25 -8 26 -7 0 -6 3 4 7 14 6 15 10 2 37 -8 17 -12 23 -10 14 2 -9
-1 -16 -8 -16 -8 0 -11 10 -8 25 4 19 2 23 -8 17 -9 -5 -11 -4 -6 4 5 7 2 26
-4 42 -11 25 -15 27 -28 17 -13 -11 -14 -11 -8 0 4 7 3 19 -4 27 -8 10 -8 15
1 21 7 4 9 3 5 -4 -3 -6 -2 -13 3 -16 16 -11 22 11 6 24 -8 7 -13 16 -10 20 2
4 -4 15 -15 25 -18 16 -18 16 -13 -4 3 -11 9 -19 12 -16 4 2 8 -2 8 -10 0 -8
-4 -12 -8 -9 -10 6 -39 64 -31 61 4 -1 7 3 7 8 0 6 -4 9 -9 7 -5 -2 -4 4 4 12
9 12 10 19 1 29 -6 8 -7 18 -3 22 4 5 1 5 -5 1 -12 -7 -18 12 -14 37 1 5 -4 5
-10 1 -9 -5 -10 -2 -6 9 3 9 2 19 -4 23 -6 3 -8 13 -5 21 4 10 -1 17 -15 20
-16 4 -17 8 -7 14 11 7 11 9 -1 9 -11 0 -11 3 0 17 12 14 12 15 0 9 -10 -7
-12 -3 -6 15 4 17 3 20 -3 10 -12 -17 -33 -5 -26 14 4 8 10 12 16 9 5 -3 4 3
-3 14 -7 12 -18 18 -24 14 -6 -3 -5 0 1 9 14 17 0 64 -16 54 -6 -4 -7 1 -3 11
4 12 3 15 -5 10 -8 -4 -10 -2 -6 7 3 8 -9 28 -26 46 -18 18 -28 36 -24 43 5 8
2 9 -10 5 -13 -5 -17 -3 -13 7 4 10 -1 13 -18 11 -14 -1 -22 1 -20 5 2 4 -45
8 -105 9 -83 1 -110 -2 -110 -11 0 -9 -3 -8 -10 2 -5 8 -10 11 -11 5z m1611
-39 c0 -2 -7 -7 -16 -10 -8 -3 -12 -2 -9 4 6 10 25 14 25 6z m-1630 -16 c13
-8 13 -10 -2 -10 -9 0 -20 5 -23 10 -8 13 5 13 25 0z m10 -24 c0 -3 -4 -8 -10
-11 -5 -3 -10 -1 -10 4 0 6 5 11 10 11 6 0 10 -2 10 -4z m84 -172 c3 -8 2 -12
-4 -9 -6 3 -10 2 -10 -3 0 -17 13 -22 28 -9 11 9 11 4 -2 -15 -17 -26 -35 -41
-21 -18 4 6 2 17 -4 24 -6 7 -9 21 -5 30 8 20 10 20 18 0z m1741 -23 c3 -5 2
-12 -3 -15 -5 -3 -9 1 -9 9 0 17 3 19 12 6z m-18 -57 c-3 -3 -12 -4 -19 -1 -8
3 -5 6 6 6 11 1 17 -2 13 -5z m-1357 -18 c0 -2 -7 -9 -15 -16 -13 -11 -14 -10
-9 4 5 14 24 23 24 12z m1335 -5 c3 -5 2 -12 -3 -15 -5 -3 -9 1 -9 9 0 17 3
19 12 6z m-1338 -40 c0 -11 -5 -18 -9 -15 -4 3 -5 11 -1 19 7 21 12 19 10 -4z
m41 -74 c8 -9 12 -20 9 -24 -4 -3 -7 -1 -7 6 0 7 -5 9 -12 5 -6 -4 -8 -3 -4 4
3 6 2 13 -4 17 -5 3 -10 14 -9 23 0 14 2 14 6 2 3 -8 12 -23 21 -33z m1218
-22 c-1 -8 -5 -17 -8 -21 -5 -4 -4 16 1 34 3 9 9 -1 7 -13z m-211 -4 c3 -5 2
-12 -3 -15 -5 -3 -9 1 -9 9 0 17 3 19 12 6z m-1318 -33 c-3 -8 -6 -5 -6 6 -1
11 2 17 5 13 3 -3 4 -12 1 -19z m1500 -3 c0 -8 -4 -12 -9 -9 -5 3 -6 10 -3 15
9 13 12 11 12 -6z m-227 -19 c0 -20 -17 -29 -26 -15 -5 8 -3 9 6 4 10 -6 12
-4 7 8 -3 10 -2 17 3 17 6 0 10 -6 10 -14z m-1211 -41 c5 3 12 1 16 -4 3 -6
-3 -8 -15 -6 -11 2 -20 0 -20 -6 0 -5 6 -9 13 -9 8 0 7 -4 -3 -10 -13 -8 -12
-10 5 -11 11 -1 23 -1 26 -1 3 1 6 -5 6 -13 0 -8 -4 -12 -8 -9 -4 2 -9 1 -12
-3 -2 -5 -3 -3 -1 4 1 6 -7 14 -19 17 -12 3 -18 8 -14 12 4 4 2 13 -4 21 -9
10 -8 13 1 13 9 0 10 3 1 13 -6 8 -8 17 -4 21 4 4 11 -3 15 -14 4 -12 12 -19
17 -15z m1211 -9 c0 -2 -8 -10 -17 -17 -16 -13 -17 -12 -4 4 13 16 21 21 21
13z m222 -20 c-4 -6 -7 -15 -7 -20 0 -5 -7 -11 -15 -13 -10 -3 -11 -2 -4 4 6
4 10 15 9 24 -2 9 3 16 11 16 7 0 10 -5 6 -11z m-247 -25 c3 -5 2 -12 -3 -15
-5 -3 -9 1 -9 9 0 17 3 19 12 6z m-851 -27 c3 -8 2 -12 -4 -9 -6 3 -10 10 -10
16 0 14 7 11 14 -7z m806 -24 c0 -5 -5 -10 -11 -10 -5 0 -7 5 -4 10 3 6 8 10
11 10 2 0 4 -4 4 -10z m265 1 c3 -5 2 -12 -3 -15 -5 -3 -9 1 -9 9 0 17 3 19
12 6z m-31 -91 c-6 -6 -10 -3 -10 10 0 13 4 16 10 10 7 -7 7 -13 0 -20z m-21
-45 c-3 -9 -8 -14 -10 -11 -3 3 -2 9 2 15 9 16 15 13 8 -4z m-287 -27 c5 -7 3
-8 -6 -3 -10 6 -12 4 -6 -11 5 -14 4 -16 -5 -7 -6 6 -8 16 -5 22 9 14 13 14
22 -1z m-908 -113 c-3 -3 -9 2 -12 12 -6 14 -5 15 5 6 7 -7 10 -15 7 -18z m-7
-29 c-9 -11 -8 -17 8 -28 12 -8 18 -18 15 -21 -4 -3 -15 4 -24 16 -13 16 -15
26 -8 35 6 6 13 12 15 12 3 0 0 -6 -6 -14z m26 -11 c0 -8 -4 -12 -9 -9 -5 3
-6 10 -3 15 9 13 12 11 12 -6z m806 -15 c3 -11 1 -18 -4 -14 -5 3 -9 -4 -9
-15 0 -11 -4 -22 -9 -25 -5 -3 -4 12 1 34 12 46 14 48 21 20z m-496 -55 c0 -8
-4 -12 -9 -9 -5 3 -6 10 -3 15 9 13 12 11 12 -6z m756 -50 c-3 -9 -8 -14 -10
-11 -3 3 -2 9 2 15 9 16 15 13 8 -4z m-321 -67 c-8 -8 -9 -4 -5 13 4 13 8 18
11 10 2 -7 -1 -18 -6 -23z m-2 -22 c0 -2 -7 -7 -16 -10 -8 -3 -12 -2 -9 4 6
10 25 14 25 6z m-608 -58 c-16 -16 -15 -31 1 -22 8 5 8 2 -2 -9 -7 -9 -9 -17
-4 -17 6 0 9 -12 6 -27 -3 -23 -2 -24 5 -9 8 19 9 19 14 -2 4 -14 2 -20 -4
-16 -6 4 -8 1 -6 -7 3 -8 10 -13 15 -12 6 1 9 -10 8 -25 -1 -15 3 -30 8 -33 5
-3 2 -9 -6 -12 -10 -4 -14 0 -12 11 1 9 -4 25 -13 35 -8 9 -11 17 -7 17 4 0 0
9 -10 20 -10 11 -15 20 -11 20 4 0 4 6 -1 13 -10 15 -11 77 -1 71 3 -2 9 0 13
6 3 5 9 10 13 10 3 0 1 -5 -6 -12z m854 -28 c0 -12 -4 -16 -9 -11 -5 5 -6 14
-3 20 10 15 12 14 12 -9z m-11 -39 c3 -5 2 -12 -3 -15 -5 -3 -9 1 -9 9 0 17 3
19 12 6z m-721 -320 c-5 -6 -34 20 -34 30 0 5 8 1 18 -8 10 -10 17 -20 16 -22z"/>
<path d="M31280 2813 c0 -6 8 -17 18 -24 16 -13 16 -13 2 6 -8 11 -16 22 -17
24 -2 2 -3 0 -3 -6z"/>
<path d="M32510 2760 c0 -5 5 -10 11 -10 5 0 7 5 4 10 -3 6 -8 10 -11 10 -2 0
-4 -4 -4 -10z"/>
<path d="M32490 2640 c-13 -8 -12 -10 3 -10 9 0 17 5 17 10 0 12 -1 12 -20 0z"/>
<path d="M36959 2558 c0 -2 -2 -11 -4 -21 -2 -9 -17 -33 -34 -53 -36 -40 -36
-41 -17 -41 8 0 15 3 14 6 -2 21 4 31 14 25 7 -4 8 -3 4 4 -4 7 -3 12 3 12 9
0 22 27 27 58 2 10 -4 18 -7 10z"/>
<path d="M31042 2528 c-7 -9 -5 -17 6 -28 14 -13 15 -12 10 2 -4 8 -1 21 5 27
8 8 8 11 0 11 -6 0 -15 -6 -21 -12z"/>
<path d="M32446 2523 c-6 -14 -5 -15 5 -6 7 7 10 15 7 18 -3 3 -9 -2 -12 -12z"/>
<path d="M33328 2533 c6 -2 18 -2 25 0 6 3 1 5 -13 5 -14 0 -19 -2 -12 -5z"/>
<path d="M32438 2493 c7 -3 16 -2 19 1 4 3 -2 6 -13 5 -11 0 -14 -3 -6 -6z"/>
<path d="M33895 2341 c2 -19 18 -17 21 2 1 8 -4 14 -11 14 -7 0 -12 -7 -10
-16z"/>
<path d="M32658 2303 c7 -3 16 -2 19 1 4 3 -2 6 -13 5 -11 0 -14 -3 -6 -6z"/>
<path d="M33905 2110 c3 -5 8 -10 11 -10 2 0 4 5 4 10 0 6 -5 10 -11 10 -5 0
-7 -4 -4 -10z"/>
<path d="M31225 2100 c-3 -5 2 -10 12 -10 15 0 16 -2 3 -10 -9 -6 -10 -10 -3
-10 19 0 24 17 9 29 -10 8 -16 9 -21 1z"/>
<path d="M33904 2046 c1 -8 5 -18 8 -22 4 -3 5 1 4 10 -1 8 -5 18 -8 22 -4 3
-5 -1 -4 -10z"/>
<path d="M31621 1994 c0 -11 3 -14 6 -6 3 7 2 16 -1 19 -3 4 -6 -2 -5 -13z"/>
<path d="M33905 1971 c-3 -5 -2 -12 3 -15 5 -3 9 1 9 9 0 17 -3 19 -12 6z"/>
<path d="M31636 1937 c3 -10 9 -15 12 -12 3 3 0 11 -7 18 -10 9 -11 8 -5 -6z"/>
<path d="M32184 1909 c-3 -6 -2 -15 3 -20 5 -5 9 -1 9 11 0 23 -2 24 -12 9z"/>
<path d="M33905 1890 c3 -5 8 -10 11 -10 2 0 4 5 4 10 0 6 -5 10 -11 10 -5 0
-7 -4 -4 -10z"/>
<path d="M33896 1862 c-3 -5 1 -9 9 -9 8 0 12 4 9 9 -3 4 -7 8 -9 8 -2 0 -6
-4 -9 -8z"/>
<path d="M31678 1823 c7 -3 16 -2 19 1 4 3 -2 6 -13 5 -11 0 -14 -3 -6 -6z"/>
<path d="M31760 1671 c0 -6 4 -13 10 -16 6 -3 7 1 4 9 -7 18 -14 21 -14 7z"/>
<path d="M33895 1616 c1 -20 6 -40 10 -44 5 -4 6 0 2 9 -3 9 -1 21 4 26 5 5 4
16 -4 27 -12 17 -13 15 -12 -18z"/>
<path d="M31766 1618 c3 -5 10 -6 15 -3 13 9 11 12 -6 12 -8 0 -12 -4 -9 -9z"/>
<path d="M33894 1537 c-1 -12 -4 -37 -7 -55 -3 -19 -3 -31 1 -28 3 4 7 12 8
19 1 7 4 27 7 44 3 18 2 35 -2 37 -4 3 -7 -5 -7 -17z"/>
<path d="M32023 1497 c-1 -11 -1 -18 0 -16 2 2 8 11 15 20 9 12 9 16 -1 16 -7
0 -14 -9 -14 -20z"/>
<path d="M35270 1470 c0 -5 5 -10 11 -10 5 0 7 5 4 10 -3 6 -8 10 -11 10 -2 0
-4 -4 -4 -10z"/>
<path d="M35466 1187 c3 -10 9 -15 12 -12 3 3 0 11 -7 18 -10 9 -11 8 -5 -6z"/>
<path d="M35685 980 c-9 -14 14 -22 32 -11 10 6 16 11 13 11 -31 7 -41 7 -45
0z"/>
<path d="M31766 852 c-3 -5 1 -9 9 -9 8 0 12 4 9 9 -3 4 -7 8 -9 8 -2 0 -6 -4
-9 -8z"/>
</g>
</svg>
